<?xml version="1.0" standalone="no"?>
<!DOCTYPE svg PUBLIC "-//W3C//DTD SVG 1.1//EN" "http://www.w3.org/Graphics/SVG/1.1/DTD/svg11.dtd" >
<svg xmlns="http://www.w3.org/2000/svg">
<metadata>Generated by IcoMoon</metadata>
<defs>
<font id="futura-pt-book-oblique" horiz-adv-x="512">
<font-face units-per-em="512" ascent="480" descent="-32" />
<missing-glyph horiz-adv-x="512" />
<glyph unicode="&#x20;" horiz-adv-x="256" d="" />
<glyph unicode="&#x21;" glyph-name="exclam" horiz-adv-x="144" d="M99.328 158.464h-36.864l33.28 272.384h36.864zM48.64 107.264c0 10.752 5.632 17.408 8.192 19.968 5.12 5.632 12.8 8.192 19.968 8.192s12.8-2.56 16.896-6.656 6.656-10.24 6.656-17.408c0-5.12-1.536-13.312-9.728-20.48-5.632-4.608-11.776-6.656-18.432-6.656-8.704 0-14.336 3.584-17.408 6.656s-6.144 8.704-6.144 16.384z" />
<glyph unicode="&#x22;" glyph-name="quotedbl" horiz-adv-x="169" d="M110.592 430.848l-23.552-137.216h-27.648l10.24 137.216h40.96zM183.296 430.848l-23.552-137.216h-27.648l10.24 137.216h40.96z" />
<glyph unicode="&#x23;" glyph-name="numbersign" horiz-adv-x="307" d="M201.728 89.344h-37.376l29.184 105.984h-69.632l-29.184-105.984h-37.376l29.184 105.984h-56.32l9.728 33.792h56.32l18.432 68.096h-56.32l9.216 33.792h56.32l27.648 99.84h37.376l-27.648-99.84h69.632l27.648 99.84h37.376l-27.648-99.84h56.32l-9.216-33.792h-56.32l-18.432-68.096h56.32l-9.728-33.792h-56.32zM203.264 229.12l18.432 68.096h-69.632l-18.432-68.096h69.632z" />
<glyph unicode="&#x24;" glyph-name="dollar" horiz-adv-x="291" d="M275.456 383.232l-32.256-19.968c-2.56 13.824-10.24 21.504-13.824 24.576-4.608 4.096-12.288 8.704-22.528 10.24l-13.824-113.152c4.096-1.536 31.232-11.776 50.176-33.28 14.336-16.384 22.016-35.84 22.016-60.416 0-36.864-15.36-61.44-28.672-75.264-9.216-9.728-31.232-28.672-68.096-31.744l-5.632-46.592h-30.72l5.632 46.080c-28.672 0-48.64 13.312-60.416 25.088-14.336 14.336-26.112 36.352-28.672 62.464l37.888 10.24c1.536-16.384 8.704-34.304 18.432-44.544 9.216-9.728 23.552-15.872 37.376-17.408l16.896 138.752-12.8 6.144c-13.824 6.656-29.184 14.848-40.448 26.624-13.824 14.336-19.456 31.232-19.456 52.224 0 27.648 10.24 48.64 26.624 65.024 12.8 12.8 34.816 27.648 68.096 27.648l5.12 44.032h30.72l-5.632-45.056c13.312-2.048 26.624-7.168 39.936-17.92 12.288-9.728 19.456-20.992 24.064-33.792zM187.904 243.968l-14.848-123.392c18.432 3.584 29.696 13.312 36.352 20.992 9.728 11.264 15.872 27.648 15.872 47.104 0 14.848-3.584 26.112-12.8 36.864-9.216 11.264-20.992 16.896-24.576 18.432zM164.352 298.752l12.288 101.376c-16.896-0.512-28.672-8.192-34.816-13.824-10.24-9.728-16.896-24.064-16.896-38.912 0-12.8 4.096-23.040 12.288-31.744 6.656-7.168 16.896-13.312 27.136-16.896z" />
<glyph unicode="&#x25;" glyph-name="percent" horiz-adv-x="366" d="M73.728 94.464l241.152 343.040 18.944-11.264-241.664-343.552zM286.208 234.24c22.528 0 40.448-8.192 52.736-20.48 13.824-13.824 18.432-30.208 18.432-47.616 0-27.136-10.24-47.104-23.040-59.904-17.408-16.896-36.864-20.48-56.32-20.48-18.432 0-34.304 3.072-50.176 18.432-14.848 14.336-20.48 31.744-20.48 49.664 0 20.48 7.68 41.984 22.528 57.344 14.336 14.336 33.792 23.040 56.32 23.040zM281.088 113.92c12.288 0 22.528 4.096 30.72 12.288 8.704 8.704 14.336 22.528 14.336 37.888 0 15.872-6.656 26.112-12.8 31.744-5.632 5.632-15.36 10.24-29.184 10.24-13.312 0-24.576-4.608-33.28-14.336s-12.8-22.528-12.8-35.328c0-13.824 5.12-24.576 12.288-31.232 5.632-5.12 14.848-11.264 30.72-11.264zM129.024 433.92c22.528 0 40.448-8.192 52.736-20.48 13.824-13.824 18.432-30.208 18.432-47.616 0-27.136-10.24-47.104-23.040-59.904-17.408-16.896-36.864-20.48-56.32-20.48-18.432 0-34.304 3.072-50.176 18.432-12.288 12.288-20.48 28.672-20.48 49.664 0 20.48 7.68 41.984 22.528 57.344 14.336 14.336 33.792 23.040 56.32 23.040zM123.904 313.6c12.288 0 22.528 4.096 30.72 12.288 8.704 8.704 14.336 22.528 14.336 37.888 0 15.872-6.656 26.112-12.8 31.744-5.632 5.632-15.36 10.24-29.184 10.24-13.312 0-24.576-4.608-33.28-14.336s-12.8-22.528-12.8-35.328c0-13.824 5.12-24.576 12.288-31.232 5.632-5.12 14.848-11.264 30.72-11.264z" />
<glyph unicode="&#x26;" glyph-name="ampersand" horiz-adv-x="327" d="M297.984 237.312l25.088-23.040c-16.896-18.432-33.28-35.328-49.664-50.688l48.128-74.24h-47.104l-31.232 47.616c-12.8-11.776-31.744-27.136-49.152-36.864-20.48-11.776-38.4-16.896-64-16.896-26.624 0-48.128 5.12-68.096 25.6-13.824 14.336-23.552 33.28-23.552 58.368 0 34.304 16.896 58.88 33.28 75.264 18.432 18.432 48.64 37.888 69.632 48.64l-10.752 18.944c-7.68 13.312-14.336 28.16-14.336 49.152 0 24.576 9.216 43.52 20.992 55.808 17.92 18.432 40.448 21.504 58.368 21.504 16.896 0 37.376-3.584 52.736-19.456 10.752-10.752 15.872-24.576 15.872-40.96 0-21.504-7.168-36.352-13.824-45.568-2.56-3.584-10.752-13.824-30.72-28.16l-25.6-18.432 59.904-91.648c15.872 14.336 30.72 29.184 44.032 45.056zM223.744 165.12l-63.488 97.792c-21.504-11.264-47.104-29.184-61.44-43.52-13.312-13.824-22.016-27.648-22.016-49.152 0-14.336 3.584-26.624 14.336-37.376s24.064-14.848 39.936-14.848c17.408 0 33.792 4.608 51.712 15.36 12.288 7.168 28.16 19.968 40.96 31.744zM164.352 329.472l10.752-17.92 20.992 14.336c5.632 3.584 17.92 13.312 23.040 19.456s8.704 15.36 8.704 25.088c0 11.776-5.632 20.48-11.776 25.6s-14.848 7.68-23.040 7.68c-11.776 0-22.528-4.608-29.184-10.752-7.68-7.168-11.776-18.432-11.776-29.184 0-13.312 6.656-25.088 12.288-34.304z" />
<glyph unicode="&#x27;" glyph-name="quotesingle" horiz-adv-x="97" d="M110.592 430.848l-23.552-137.216h-27.648l10.24 137.216h40.96z" />
<glyph unicode="&#x28;" glyph-name="parenleft" horiz-adv-x="153" d="M133.632 468.224l30.72-14.848c-23.552-49.152-37.888-90.624-51.712-141.824-12.8-47.616-21.504-92.672-21.504-143.36 0-26.112 3.072-90.112 18.944-151.040l-33.792-14.848c-16.384 59.392-23.040 117.76-23.040 162.816 0 55.808 10.24 110.592 24.064 159.232 17.92 62.976 40.96 113.152 56.32 143.872z" />
<glyph unicode="&#x29;" glyph-name="parenright" horiz-adv-x="153" d="M53.76 2.304l-30.72 14.848c23.040 49.664 39.936 96.768 52.224 142.336 14.336 52.736 20.992 95.232 20.992 153.6 0 38.912-3.072 83.456-18.944 140.288l33.792 14.848c18.944-70.144 23.040-114.688 23.040-157.696 0-62.464-6.144-100.352-22.528-158.208-13.824-49.664-28.672-94.208-57.856-150.016z" />
<glyph unicode="&#x2a;" glyph-name="asterisk" horiz-adv-x="291" d="M112.128 421.12l56.32-22.016 5.632 63.488h34.816l-10.752-63.488 62.464 22.016 6.656-32.256-63.488-17.408 33.28-49.664-30.208-19.968-28.672 52.736-41.984-52.736-25.088 19.968 45.568 49.664-59.392 17.408z" />
<glyph unicode="&#x2b;" glyph-name="plus" d="M37.888 242.944v33.792h92.672v88.064h36.864v-88.064h92.672v-33.792h-92.672v-88.064h-36.864v88.064h-92.672z" />
<glyph unicode="&#x2c;" glyph-name="comma" horiz-adv-x="141" d="M4.096 21.248l56.32 118.272 32.256-12.288-66.048-115.712z" />
<glyph unicode="&#x2d;" glyph-name="hyphen" horiz-adv-x="164" d="M36.864 179.456l4.608 37.888h112.64l-4.608-37.888h-112.64z" />
<glyph unicode="&#x2e;" glyph-name="period" horiz-adv-x="117" d="M35.328 107.264c0 10.752 5.632 17.408 8.192 19.968 5.12 5.632 12.8 8.192 19.968 8.192s12.8-2.56 16.896-6.656 6.656-10.24 6.656-17.408c0-5.12-1.536-13.312-9.728-20.48-5.632-4.608-11.776-6.656-18.432-6.656-8.704 0-14.336 3.584-17.408 6.656s-6.144 8.704-6.144 16.384z" />
<glyph unicode="&#x2f;" glyph-name="slash" horiz-adv-x="310" d="M-9.728 2.304l323.584 475.648 30.72-15.36-323.072-474.624z" />
<glyph unicode="&#x30;" glyph-name="zero" horiz-adv-x="291" d="M144.384 83.2c-23.552 0-43.52 4.608-64.512 26.112-35.328 36.352-38.912 87.040-38.912 115.2 0 69.632 24.064 137.728 63.488 177.664 24.576 25.088 49.664 34.304 79.872 34.304 25.088 0 47.104-7.68 65.536-25.088 20.992-19.968 38.912-54.272 38.912-114.176 0-67.072-17.92-139.776-62.464-182.784-25.6-24.576-49.664-31.232-81.92-31.232zM181.76 401.664c-21.504 0-38.4-8.704-53.248-23.552-31.232-31.744-49.664-93.184-49.664-147.968 0-9.216 1.024-66.048 28.672-94.72 11.776-12.288 25.6-17.408 41.984-17.408 20.48 0 35.328 6.656 49.152 19.456 35.84 32.768 52.224 103.424 52.224 154.624 0 30.208-7.168 72.704-28.672 93.696-11.776 11.776-25.088 15.872-40.448 15.872z" />
<glyph unicode="&#x31;" glyph-name="one" horiz-adv-x="291" d="M136.192 89.344l37.376 305.664h-57.344l24.576 35.84h75.264l-41.984-341.504h-37.888z" />
<glyph unicode="&#x32;" glyph-name="two" horiz-adv-x="291" d="M246.272 89.344h-220.672l142.336 142.848c16.896 16.896 40.448 40.96 51.2 55.808 12.288 16.896 20.48 33.792 20.48 55.808 0 20.48-8.192 33.792-16.896 41.984-8.192 7.68-22.528 15.872-45.568 15.872-27.648 0-43.52-10.752-51.2-18.944-12.288-12.288-19.968-33.28-21.504-51.712h-37.888c3.584 28.16 16.384 57.344 35.328 75.776 19.456 18.944 47.104 29.696 78.336 29.696 30.208 0 55.296-10.752 71.168-25.6 18.432-17.408 26.112-39.424 26.112-62.976 0-31.744-10.752-55.808-30.72-81.408-16.896-21.504-38.912-41.472-59.392-61.952l-81.408-80.384h144.384z" />
<glyph unicode="&#x33;" glyph-name="three" horiz-adv-x="291" d="M115.2 346.368h-37.888c3.584 24.576 15.36 48.64 29.696 63.488 19.968 20.48 45.056 26.624 69.12 26.624 34.304 0 54.272-11.776 66.048-22.528 13.312-12.288 25.088-32.768 25.088-64.512 0-17.408-3.584-34.304-14.336-50.176-7.168-10.24-18.944-23.552-39.424-30.72 9.216-4.608 19.456-11.264 28.16-25.088 9.728-14.848 12.288-29.696 12.288-45.568 0-30.208-10.752-61.952-32.768-84.48-25.6-26.112-53.76-30.208-77.824-30.208-23.552 0-50.176 4.096-71.168 25.6-15.36 15.872-27.136 41.984-28.672 69.12h37.888c1.024-16.896 8.192-34.816 18.432-45.056 13.824-13.312 32.768-14.848 43.52-14.848 12.8 0 33.792 2.048 50.176 18.432 15.36 15.36 21.504 40.96 21.504 59.392 0 20.992-9.216 33.28-15.872 39.936-8.192 7.68-22.528 15.872-45.056 15.872h-4.096l4.096 33.792h5.12c21.504 0 39.424 5.12 51.2 14.848 16.384 13.312 19.456 33.28 19.456 49.152 0 11.264-2.048 26.112-14.336 37.888-10.24 9.728-25.6 14.336-40.96 14.336-17.92 0-32.256-6.656-41.472-15.36-10.24-10.24-16.384-25.6-17.92-39.936z" />
<glyph unicode="&#x34;" glyph-name="four" horiz-adv-x="291" d="M266.24 449.792l-31.744-261.12h41.984l-4.608-34.816h-41.984l-7.68-64.512h-37.888l7.68 64.512h-175.104zM90.112 188.672h105.984l18.432 147.456z" />
<glyph unicode="&#x35;" glyph-name="five" horiz-adv-x="291" d="M287.232 430.848l-4.096-34.816h-109.568l-30.72-74.24c34.816 5.632 68.096-4.096 90.112-25.6 17.92-17.408 30.208-43.008 30.208-78.336 0-49.152-20.48-80.896-37.376-98.304-27.648-28.16-58.88-36.352-93.696-36.352-25.088 0-46.080 3.584-67.584 17.92-16.896 11.264-31.232 28.16-40.448 43.52l32.768 21.504c2.048-4.096 10.24-19.968 25.088-31.744 16.384-12.8 33.792-16.384 50.688-16.384 33.792 0 54.784 12.288 67.072 25.088 16.384 16.896 25.6 44.032 25.6 73.216 0 16.384-4.608 38.912-24.064 55.296-14.848 12.8-36.352 17.92-54.784 17.92-23.040 0-45.568-7.68-64-20.992l69.12 162.304h135.68z" />
<glyph unicode="&#x36;" glyph-name="six" horiz-adv-x="291" d="M212.992 439.040l28.16-21.504-88.576-105.984c34.816 5.632 73.216-4.608 98.304-30.208 20.992-21.504 27.136-45.568 27.136-72.704 0-38.4-11.776-67.072-34.304-89.6-28.16-28.16-61.952-35.84-96.256-35.84-25.6 0-53.76 5.632-76.288 27.136-17.92 16.896-31.232 44.544-31.232 76.8 0 22.528 6.144 45.568 17.92 66.048 9.728 16.896 23.552 33.792 38.4 50.688zM152.064 118.016c30.72 0 50.688 10.752 62.464 22.528 12.288 12.288 24.576 33.28 24.576 67.072 0 14.848-2.56 34.304-19.968 50.688-14.848 13.824-37.376 19.968-56.32 19.968-20.48 0-41.984-8.192-58.368-24.064-15.36-14.848-26.112-38.4-26.112-64.512 0-18.944 6.656-36.864 19.456-50.176 15.36-16.384 34.304-21.504 54.272-21.504z" />
<glyph unicode="&#x37;" glyph-name="seven" horiz-adv-x="291" d="M26.112 101.12l230.4 294.912h-184.832l4.096 34.816h250.88l-271.36-349.696z" />
<glyph unicode="&#x38;" glyph-name="eight" horiz-adv-x="291" d="M219.648 265.984c16.384-7.68 25.6-19.456 29.184-24.576 9.728-14.336 13.312-30.208 13.312-46.080 0-40.96-15.872-66.56-31.232-81.92-25.088-25.088-53.76-30.72-82.432-30.72-23.552 0-51.712 4.608-72.704 26.624-16.896 17.408-24.576 43.008-24.576 67.584 0 19.456 6.144 44.032 18.432 60.416 10.752 14.336 27.648 25.6 44.544 31.232-10.24 6.656-17.92 15.36-22.528 23.552-8.192 13.824-10.24 27.648-10.24 40.448 0 39.936 16.384 64 27.648 75.776 22.016 22.528 49.152 28.16 73.216 28.16 19.968 0 46.080-4.096 66.048-24.576 20.48-20.992 22.528-47.104 22.528-62.464 0-16.896-3.072-34.816-14.336-52.224-6.656-10.24-17.92-23.040-36.864-31.232zM171.52 282.368c16.384 0 33.28 5.632 44.544 16.384 10.24 9.728 18.432 25.6 18.432 48.128 0 12.288-2.56 28.16-15.36 40.448-12.288 12.288-28.16 14.336-40.448 14.336-16.896 0-30.72-4.096-42.496-15.872-11.264-10.752-19.456-28.672-19.456-49.152 0-19.968 8.192-31.744 14.336-38.4 7.168-7.68 19.968-15.872 40.448-15.872zM150.528 118.016c14.848 0 35.328 1.536 52.224 17.92 12.8 12.288 20.992 32.768 20.992 54.272 0 27.136-13.312 40.96-18.944 45.568-7.68 6.656-21.504 13.824-44.032 13.824-18.944 0-36.352-4.608-50.688-19.968-11.264-12.288-19.968-30.208-19.968-51.712 0-18.432 6.144-33.792 15.872-43.52 12.8-12.8 29.696-16.384 44.544-16.384z" />
<glyph unicode="&#x39;" glyph-name="nine" horiz-adv-x="291" d="M116.736 81.152l-26.112 20.992 89.6 106.496c-34.816-7.168-75.776 6.144-100.352 30.72-19.968 20.48-26.112 44.032-26.112 67.584 0 44.544 17.408 75.264 36.352 94.208 26.112 26.112 57.856 35.328 91.136 35.328 41.472 0 68.096-16.384 82.944-31.232 19.968-19.968 27.136-43.52 27.136-70.656 0-22.016-3.584-39.424-13.312-59.392-11.264-23.040-25.088-38.4-40.448-55.808zM177.664 401.664c-21.504 0-41.984-5.12-59.392-22.528-14.848-14.336-26.112-37.888-26.112-69.12 0-13.824 3.584-31.744 17.408-46.592 11.776-12.288 31.744-22.016 56.832-22.016 29.696 0 49.664 13.824 61.44 26.112 14.336 15.36 25.088 38.912 25.088 63.488 0 25.6-11.264 42.496-22.528 52.224-10.24 9.216-27.136 18.432-52.736 18.432z" />
<glyph unicode="&#x3a;" glyph-name="colon" horiz-adv-x="117" d="M35.328 106.24c0 10.752 5.632 17.408 8.192 19.968 5.12 5.632 12.8 8.192 19.968 8.192s12.8-2.56 16.896-6.656 6.656-10.24 6.656-17.408c0-5.12-1.536-13.312-9.728-20.48-5.632-4.608-11.776-6.656-18.432-6.656-8.704 0-14.336 3.584-17.408 6.656s-6.144 8.704-6.144 16.384zM56.32 278.784c0 10.752 5.632 17.408 8.192 19.968 5.12 5.632 12.8 8.192 19.968 8.192s12.8-2.56 16.896-6.656 6.656-10.24 6.656-17.408c0-5.12-1.536-13.312-9.728-20.48-5.632-4.608-11.776-6.656-18.432-6.656-8.704 0-14.336 3.584-17.408 6.656s-6.144 8.704-6.144 16.384z" />
<glyph unicode="&#x3b;" glyph-name="semicolon" horiz-adv-x="141" d="M4.096 21.248l56.32 118.272 32.256-12.288-66.048-115.712zM62.976 278.784c0 10.752 5.632 17.408 8.192 19.968 5.12 5.632 12.8 8.192 19.968 8.192s12.8-2.56 16.896-6.656 6.656-10.24 6.656-17.408c0-5.12-1.536-13.312-9.728-20.48-5.632-4.608-11.776-6.656-18.432-6.656-8.704 0-14.336 3.584-17.408 6.656s-6.144 8.704-6.144 16.384z" />
<glyph unicode="&#x3c;" glyph-name="less" d="M83.456 258.304l182.784-82.944v-36.864l-222.208 103.936v31.744l222.208 103.936v-36.864z" />
<glyph unicode="&#x3d;" glyph-name="equal" d="M38.4 285.952v33.792h222.208v-33.792h-222.208zM38.4 207.104v33.792h222.208v-33.792h-222.208z" />
<glyph unicode="&#x3e;" glyph-name="greater" d="M214.016 258.304l-182.784 82.944v36.864l222.208-103.936v-31.744l-222.208-103.936v36.864z" />
<glyph unicode="&#x3f;" glyph-name="question" horiz-adv-x="225" d="M165.376 237.312h36.864c0-20.992-7.68-43.008-21.504-57.344-9.216-9.216-26.624-20.992-55.808-20.992-13.312 0-35.328 2.048-52.736 18.944-12.8 12.8-17.408 28.16-17.408 44.544 0 24.064 9.216 41.984 20.48 53.248 13.824 14.336 33.792 21.504 53.248 27.136l16.896 5.12c6.656 2.048 21.504 7.168 31.744 18.432 5.12 5.632 12.288 16.384 12.288 33.792 0 18.432-8.704 27.648-13.312 31.744-7.168 6.144-17.92 9.728-30.208 9.728-15.36 0-26.112-5.632-33.28-12.8-9.728-9.728-13.824-25.6-13.824-40.96 0-4.608 0.512-8.704 1.024-12.8h-37.888c-0.512 4.608-0.512 8.704-0.512 12.8 0 34.816 14.336 54.784 25.088 65.536 19.968 19.456 43.008 23.040 62.464 23.040 17.408 0 41.472-3.072 58.88-20.48 9.216-9.216 19.456-25.088 19.456-53.248 0-22.528-6.144-41.472-22.016-57.856-11.776-12.288-29.184-22.016-44.544-26.624l-22.528-7.168c-13.312-4.096-25.6-7.68-35.328-17.408-4.608-5.12-10.752-13.824-10.752-27.136 0-12.288 4.608-20.48 9.728-24.576 6.144-5.632 16.384-8.192 25.6-8.192 13.824 0 22.528 5.12 27.136 9.728 7.68 8.192 10.752 22.528 10.752 33.792zM88.576 104.704c0 10.752 5.632 17.408 8.192 19.968 5.12 5.632 12.8 8.192 19.968 8.192s12.8-2.56 16.896-6.656 6.656-10.24 6.656-17.408c0-5.12-1.536-13.312-9.728-20.48-5.632-4.608-11.776-6.656-18.432-6.656-8.704 0-14.336 3.584-17.408 6.656s-6.144 8.704-6.144 16.384z" />
<glyph unicode="&#x40;" glyph-name="at" horiz-adv-x="378" d="M273.408 307.968l10.752 32.768h26.624l-33.792-107.52c-2.048-7.168-6.144-20.48-6.144-28.16 0-6.144 0.512-10.752 5.12-14.848 3.584-3.584 7.68-4.608 12.288-4.608 11.776 0 24.576 6.144 34.304 14.848 22.016 20.48 35.328 58.88 35.328 95.232 0 39.424-15.36 67.072-36.352 85.504-18.432 15.872-47.616 29.696-87.552 29.696-59.392 0-98.304-26.112-121.344-49.664-34.304-35.328-48.64-81.408-48.64-122.368 0-32.768 11.264-68.608 34.304-92.672 23.552-24.064 62.976-38.912 109.568-38.912 20.48 0 64.512 3.072 104.96 23.552l4.608-23.552c-13.312-6.656-52.736-24.576-118.272-24.576-49.152 0-88.064 13.312-120.32 46.592-26.112 27.136-40.96 60.416-40.96 105.472 0 56.32 22.528 107.008 55.296 141.312 26.112 27.136 72.704 59.392 142.848 59.392 52.224 0 87.552-19.456 109.056-40.96 20.992-20.992 37.376-51.2 37.376-92.672 0-30.208-9.728-83.968-40.96-114.688-14.848-14.336-34.304-24.064-53.248-24.064-10.752 0-19.456 2.56-27.648 10.24-7.68 7.168-10.752 14.848-10.752 24.064-7.168-10.752-15.872-19.456-25.088-25.088-12.8-8.192-26.112-11.264-39.936-11.264-16.896 0-33.28 4.608-46.592 17.92-9.216 9.216-19.456 26.112-19.456 54.272 0 30.72 12.8 63.488 35.328 86.528 19.968 19.968 41.984 27.648 64.512 27.648 17.92 0 31.744-6.144 39.936-13.824 7.168-6.656 12.288-16.384 14.848-25.6zM190.464 188.672c15.36 0 28.16 5.12 40.96 17.408 17.92 17.92 28.16 46.592 28.16 69.632 0 15.872-5.632 26.624-12.288 33.28s-17.92 10.752-28.16 10.752c-16.384 0-33.792-7.168-46.080-20.48-15.36-16.384-24.064-42.496-24.064-62.976 0-21.504 8.704-33.28 14.336-38.4 7.68-6.656 16.384-9.216 27.136-9.216z" />
<glyph unicode="&#x41;" glyph-name="A" horiz-adv-x="319" d="M273.408 89.344l-28.16 96.256h-145.408l-52.736-96.256h-43.008l201.216 357.888 109.056-357.888h-40.96zM119.296 221.44h115.712l-40.96 136.704z" />
<glyph unicode="&#x42;" glyph-name="B" horiz-adv-x="273" d="M86.016 430.848h55.808c46.080 0 72.192-13.824 84.992-27.136 11.776-11.776 19.968-30.72 19.968-54.272 0-15.872-4.096-35.328-11.776-49.152-5.12-9.216-15.36-20.992-31.744-28.672 11.264-4.608 24.576-12.288 34.304-22.016 15.36-15.872 20.992-34.304 20.992-56.832 0-36.352-13.824-60.416-31.232-75.264-29.696-25.6-71.168-28.16-94.208-28.16h-89.088zM119.296 395.008l-13.824-114.176h24.576c18.944 0 43.008 2.048 60.416 17.408 15.36 13.312 18.432 31.232 18.432 45.568 0 9.728-2.048 28.16-18.944 39.936-11.264 8.192-29.696 11.264-45.568 11.264h-25.088zM101.376 247.040l-14.848-121.856h46.080c21.504 0 48.64 3.584 64 14.848 12.288 8.704 23.552 25.6 23.552 50.688 0 18.944-6.144 35.328-25.088 46.080-15.872 9.216-36.352 10.24-55.296 10.24h-38.4z" />
<glyph unicode="&#x43;" glyph-name="C" horiz-adv-x="333" d="M345.6 402.688l-5.632-47.104c-9.216 10.24-22.016 22.016-39.936 31.232-19.968 10.24-37.888 13.824-57.856 13.824-44.544 0-83.456-16.896-111.104-44.544-27.648-28.16-44.544-68.096-44.544-109.568s16.896-72.192 35.84-92.16c24.576-25.6 53.248-35.328 86.016-35.328 26.112 0 48.128 5.632 65.024 14.336 13.824 7.168 31.232 19.456 43.008 30.208l-5.632-47.104c-13.312-9.216-31.232-19.456-43.52-24.064-15.36-5.632-39.936-9.216-61.44-9.216-50.176 0-88.576 16.896-116.224 45.056-31.232 31.744-43.008 70.656-43.008 114.176 0 75.264 34.816 120.32 57.344 142.336 40.96 39.936 88.064 51.712 138.24 51.712 19.456 0 45.056-2.56 67.072-11.776 10.752-4.608 25.088-13.312 36.352-22.016z" />
<glyph unicode="&#x44;" glyph-name="D" horiz-adv-x="326" d="M44.032 89.344l41.984 341.504h61.952c38.4 0 92.672-5.632 131.584-42.496 20.992-20.48 41.472-54.272 41.472-110.592 0-39.424-9.216-94.72-49.664-136.192-41.984-43.008-96.256-52.224-161.28-52.224h-66.048zM119.296 395.008l-32.768-269.824h25.088c55.808 0 98.816 9.216 130.048 40.448 34.304 34.304 39.424 82.432 39.424 109.056 0 27.136-5.632 59.392-30.72 84.992-31.744 32.768-73.728 35.328-97.792 35.328h-33.28z" />
<glyph unicode="&#x45;" glyph-name="E" horiz-adv-x="247" d="M263.168 430.848l-4.608-35.84h-139.264l-12.288-101.376h135.168l-4.608-35.84h-135.168l-15.872-132.608h139.264l-4.608-35.84h-177.152l41.984 341.504h177.152z" />
<glyph unicode="&#x46;" glyph-name="F" horiz-adv-x="222" d="M241.664 430.848l-4.608-35.84h-117.76l-12.288-100.864h113.664l-4.096-35.84h-113.664l-20.992-168.96h-37.888l41.984 341.504h155.648z" />
<glyph unicode="&#x47;" glyph-name="G" horiz-adv-x="389" d="M238.080 225.024l4.096 35.84h142.336l-1.024-8.192c-4.096-31.744-13.312-79.36-50.176-118.784-34.816-37.376-77.824-50.688-124.928-50.688-43.008 0-83.968 12.288-116.736 45.056-25.088 25.088-45.056 61.952-45.056 114.176 0 60.928 25.088 108.032 56.32 139.264 40.96 41.472 88.064 54.784 140.8 54.784 32.768 0 61.44-5.632 89.6-23.552 24.064-14.848 38.912-33.792 48.64-50.688l-31.232-25.6c-9.216 18.432-22.016 33.28-41.472 45.568-19.968 12.8-39.936 18.432-66.048 18.432-55.808 0-92.16-23.040-112.128-42.496-31.232-31.232-45.568-76.288-45.568-114.688 0-34.304 13.312-67.072 35.328-89.6 27.136-28.16 60.416-34.816 91.136-34.816 28.16 0 62.464 5.12 91.136 34.816 19.456 19.456 31.232 46.592 36.352 71.168h-101.376z" />
<glyph unicode="&#x48;" glyph-name="H" horiz-adv-x="339" d="M123.904 430.848l-16.896-138.752h175.104l16.896 138.752h37.888l-41.984-341.504h-37.888l20.48 166.912h-175.104l-20.48-166.912h-37.888l41.984 341.504h37.888z" />
<glyph unicode="&#x49;" glyph-name="I" horiz-adv-x="126" d="M86.016 430.848h37.888l-41.984-341.504h-37.888z" />
<glyph unicode="&#x4a;" glyph-name="J" horiz-adv-x="153" d="M113.152 430.848h37.888l-30.208-246.784c-4.096-33.792-10.24-61.952-28.16-79.872-7.168-7.168-25.088-20.992-59.392-20.992-12.288 0-23.040 2.048-34.304 7.68-8.192 4.096-16.384 9.728-23.552 17.408l24.576 29.696c4.608-5.632 9.728-9.216 15.36-12.8 7.168-4.096 12.8-6.144 22.016-6.144 10.24 0 18.944 2.56 26.624 10.24s14.848 22.016 18.944 54.784z" />
<glyph unicode="&#x4b;" glyph-name="K" horiz-adv-x="291" d="M123.904 430.848l-17.92-146.432 163.328 146.432h51.2l-181.248-159.744 142.336-181.76h-50.176l-120.32 156.672-11.264-9.728-17.92-146.944h-37.888l41.984 341.504h37.888z" />
<glyph unicode="&#x4c;" glyph-name="L" horiz-adv-x="184" d="M86.016 430.848h37.888l-37.376-305.664h94.208l-4.608-35.84h-132.096z" />
<glyph unicode="&#x4d;" glyph-name="M" horiz-adv-x="442" d="M71.68 89.344h-39.424l100.864 360.448 95.744-288.256 169.472 288.768 8.704-360.96h-38.4l-3.072 237.568-146.944-251.904-83.968 251.904z" />
<glyph unicode="&#x4e;" glyph-name="N" horiz-adv-x="392" d="M81.92 89.344h-37.888l43.52 355.84 231.936-280.064 32.768 265.728h37.888l-44.032-356.864-231.936 280.064z" />
<glyph unicode="&#x4f;" glyph-name="O" horiz-adv-x="410" d="M204.288 83.2c-37.376 0-79.872 9.728-113.664 44.544-20.992 21.504-44.032 58.368-44.032 113.152 0 70.144 30.72 115.712 58.368 141.824 37.376 35.84 83.456 53.76 140.288 53.76 37.376 0 79.36-8.192 114.688-43.008 22.016-21.504 45.056-57.344 45.056-111.616 0-52.736-18.944-107.52-57.344-144.896-29.696-28.672-78.336-53.76-143.36-53.76zM241.152 400.64c-43.52 0-81.408-15.872-108.032-40.448-24.064-22.528-47.104-59.904-47.104-112.128 0-41.984 15.36-73.728 35.328-94.208 17.92-18.432 45.568-34.816 87.040-34.816 46.080 0 85.504 16.384 110.592 40.96 30.208 29.184 46.592 74.24 46.592 114.688 0 38.4-14.848 70.144-35.84 91.136-16.896 16.896-45.056 34.816-88.576 34.816z" />
<glyph unicode="&#x50;" glyph-name="P" horiz-adv-x="234" d="M86.016 430.848h61.952c34.816 0 65.024-9.216 82.432-26.112 13.824-13.312 23.552-35.84 23.552-64.512 0-33.28-12.8-58.368-27.648-72.704-14.336-13.824-41.984-29.696-96.768-29.696h-29.184l-18.432-148.48h-37.888zM119.296 395.008l-14.848-121.344h32.256c18.432 0 43.52 2.048 61.44 18.432 10.24 9.216 18.432 24.576 18.432 47.104 0 23.040-9.216 36.352-18.944 43.52-13.824 10.752-34.816 12.288-50.176 12.288h-28.16z" />
<glyph unicode="&#x51;" glyph-name="Q" horiz-adv-x="410" d="M336.896 85.76l-22.528 26.624c-33.28-20.992-66.56-29.184-105.472-29.184-41.984 0-84.992 10.752-118.784 46.080-23.552 24.576-43.52 62.976-43.52 112.64 0 47.104 15.872 99.84 56.832 140.288 26.624 26.112 70.656 54.272 138.752 54.272 42.496 0 82.432-11.776 115.712-43.52 34.304-32.768 47.104-72.192 47.104-115.2 0-32.768-6.656-61.44-17.408-83.968-3.584-7.68-16.896-33.28-45.056-57.344l41.472-50.688h-47.104zM264.192 226.56l53.248-61.952c11.264 9.728 23.040 22.528 31.232 36.352 12.8 21.504 16.896 44.032 16.896 67.072 0 41.984-14.336 72.704-34.304 94.208-19.456 21.504-48.128 38.4-89.6 38.4-40.448 0-78.848-14.848-109.056-43.52-38.912-37.376-46.592-80.896-46.592-111.616 0-37.888 14.336-70.144 35.328-91.648 24.576-25.6 55.808-34.816 91.648-34.816 29.696 0 53.248 7.168 76.288 22.528l-72.192 84.992h47.104z" />
<glyph unicode="&#x52;" glyph-name="R" horiz-adv-x="259" d="M86.016 430.848h54.784c28.16 0 60.416-1.536 85.504-25.088 19.968-18.432 24.576-40.96 24.576-60.928 0-27.136-6.144-52.736-27.136-72.704-18.432-17.92-46.592-28.16-71.68-30.208l89.6-152.576h-46.080l-85.504 149.504h-9.728l-18.432-149.504h-37.888zM119.296 395.008l-14.848-122.368h24.064c15.872 0 44.544 1.024 63.488 17.92 10.24 9.216 19.968 26.112 19.968 48.64 0 26.112-12.8 39.936-23.040 46.080s-32.768 9.728-48.128 9.728h-21.504z" />
<glyph unicode="&#x53;" glyph-name="S" horiz-adv-x="265" d="M262.656 383.232l-32.256-19.968c-4.096 11.776-11.264 20.48-18.944 26.624-12.8 9.728-26.624 10.752-38.4 10.752-12.8 0-29.184-2.048-43.008-14.336-10.24-9.216-17.92-24.576-17.92-40.448 0-10.752 4.096-22.016 14.336-31.232 6.656-6.144 21.504-14.336 28.672-17.92l30.72-14.336c15.872-7.168 31.232-16.384 43.52-29.184 19.456-19.968 23.040-37.888 23.040-59.904 0-19.968-3.584-51.2-28.672-77.312-28.672-29.696-64.512-32.768-88.576-32.768-27.648 0-50.176 5.12-70.656 25.6-14.848 15.36-26.112 37.888-28.672 62.464l37.888 10.24c1.024-17.408 7.68-33.28 18.432-44.544 14.848-15.36 31.744-17.92 48.64-17.92 16.384 0 37.376 2.56 53.248 18.944 12.8 13.312 18.432 33.28 18.432 49.664 0 20.48-9.216 35.328-18.432 43.52-6.656 6.144-22.528 15.36-33.28 20.48l-27.136 12.8c-9.216 4.096-29.184 14.336-40.448 26.112-9.216 9.728-19.456 26.112-19.456 52.736 0 24.064 7.168 45.568 26.624 64.512 21.504 20.992 46.592 28.672 75.264 28.672 14.848 0 37.888-2.048 56.32-14.336 13.312-8.704 24.576-23.040 30.72-38.912z" />
<glyph unicode="&#x54;" glyph-name="T" horiz-adv-x="218" d="M248.32 395.008h-82.944l-37.376-305.664h-37.888l37.376 305.664h-82.944l4.608 35.84h203.776z" />
<glyph unicode="&#x55;" glyph-name="U" horiz-adv-x="331" d="M123.904 430.848l-24.576-200.704c-2.048-15.36-3.584-27.648-3.584-40.96 0-18.944 6.144-37.376 22.016-51.712 17.92-16.384 37.376-18.432 57.344-18.432 16.896 0 44.032 1.024 64.512 24.064 19.456 22.016 23.040 57.344 25.6 78.336l25.6 209.408h37.888l-27.136-219.648c-4.608-37.376-10.752-69.632-39.936-97.28s-63.488-30.72-90.624-30.72c-31.744 0-59.904 6.144-83.456 28.672-15.872 15.36-29.696 37.888-29.696 70.656 0 10.752 2.56 42.496 3.584 51.712l24.576 196.608h37.888z" />
<glyph unicode="&#x56;" glyph-name="V" horiz-adv-x="285" d="M46.080 430.848h41.472l64-260.608 128.512 260.608h42.496l-182.784-361.984z" />
<glyph unicode="&#x57;" glyph-name="W" horiz-adv-x="491" d="M46.080 430.848h41.472l58.88-256 140.288 273.408 68.096-273.408 131.072 256h42.496l-187.392-359.424-67.072 273.408-140.8-273.408z" />
<glyph unicode="&#x58;" glyph-name="X" horiz-adv-x="257" d="M7.168 89.344l122.368 176.64-71.168 164.864h41.984l54.784-128.512 88.576 128.512h43.008l-114.176-164.864 77.312-176.64h-41.984l-60.928 140.288-96.768-140.288h-43.008z" />
<glyph unicode="&#x59;" glyph-name="Y" horiz-adv-x="272" d="M116.224 89.344l17.92 146.944-88.064 194.56h43.008l68.096-152.576 107.008 152.576h45.056l-137.216-194.56-17.92-146.944h-37.888z" />
<glyph unicode="&#x5a;" glyph-name="Z" horiz-adv-x="275" d="M304.128 430.848l-223.744-305.664h181.248l-4.608-35.84h-244.736l223.744 305.664h-162.304l4.608 35.84h225.792z" />
<glyph unicode="&#x5b;" glyph-name="bracketleft" horiz-adv-x="148" d="M167.936 428.8h-49.152l-48.128-392.704h49.152l-4.096-33.792h-86.016l56.832 460.288h86.016z" />
<glyph unicode="&#x5c;" glyph-name="backslash" horiz-adv-x="301" d="M291.328 2.304l-29.184-14.336-206.848 474.624 29.696 15.36z" />
<glyph unicode="&#x5d;" glyph-name="bracketright" horiz-adv-x="148" d="M14.336 36.096h49.152l48.128 392.704h-49.152l4.608 33.792h86.016l-56.832-460.288h-86.016z" />
<glyph unicode="&#x5e;" glyph-name="asciicircum" d="M151.040 402.688l-74.752-126.464h-39.936l90.624 154.624h48.128l90.624-154.624h-39.936z" />
<glyph unicode="&#x5f;" glyph-name="underscore" d="M0 21.76v32.768h256v-32.768h-256z" />
<glyph unicode="&#x60;" glyph-name="grave" d="M158.72 343.808l-60.416 69.12 39.936 17.408 44.544-74.24z" />
<glyph unicode="&#x61;" glyph-name="a" horiz-adv-x="271" d="M221.184 271.616l3.584 30.208h36.864l-26.112-212.48h-36.864l3.584 29.696c-6.656-9.216-15.872-18.944-26.624-25.088-15.36-8.704-31.232-10.752-44.032-10.752-25.6 0-49.152 5.12-69.12 26.112-15.872 16.896-27.648 40.96-27.648 75.776 0 43.52 16.896 75.264 36.864 94.208s44.544 27.648 76.288 27.648c14.336 0 29.696-2.048 45.056-10.24 12.8-6.656 21.504-14.848 28.16-25.088zM151.040 274.176c-23.552 0-40.448-9.728-51.2-19.968-15.872-14.848-27.136-40.448-27.136-66.56 0-20.992 7.68-42.496 22.016-55.808 12.8-12.288 28.16-15.872 43.008-15.872 23.040 0 40.448 7.68 52.736 20.992 15.36 15.872 24.064 43.008 24.064 69.12 0 28.672-12.8 44.544-19.968 51.2-8.704 8.192-22.528 16.896-43.52 16.896z" />
<glyph unicode="&#x62;" glyph-name="b" horiz-adv-x="271" d="M75.264 120.064l-3.584-30.72h-36.864l46.080 373.248h36.864l-23.552-190.464c7.168 9.728 17.408 18.944 27.648 24.576 12.8 7.168 26.112 10.24 42.496 10.24 24.576 0 49.664-5.632 69.632-25.088 24.064-23.552 27.648-54.784 27.648-72.192 0-37.888-12.8-73.216-36.864-96.768s-50.176-29.696-76.8-29.696c-14.336 0-31.232 2.048-47.104 11.264-14.336 8.704-22.528 20.48-25.6 25.6zM148.48 115.968c22.528 0 38.4 9.728 48.128 18.944 18.432 17.92 27.136 46.592 27.136 68.608s-8.192 40.448-19.456 51.712c-11.264 11.776-27.648 18.944-46.080 18.944-13.824 0-32.768-3.584-50.176-20.48-16.384-15.872-26.624-40.448-26.624-64.512 0-22.528 8.192-41.984 21.504-55.296 9.728-9.728 24.576-17.92 45.568-17.92z" />
<glyph unicode="&#x63;" glyph-name="c" horiz-adv-x="226" d="M226.304 286.464l-5.12-44.032c-7.168 8.192-17.408 17.408-26.624 22.528-10.24 5.632-24.576 9.216-38.4 9.216-23.552 0-41.984-8.192-56.832-22.016-13.824-13.312-27.136-34.304-27.136-64.512 0-26.624 10.752-43.52 20.48-53.248 14.336-14.336 31.744-18.432 49.152-18.432 14.848 0 26.624 2.56 39.424 9.216 13.824 7.168 23.040 16.384 29.696 24.064l-5.12-44.032c-10.24-7.68-20.48-13.312-30.72-16.384-12.288-4.096-25.6-5.632-37.888-5.632-26.112 0-52.736 5.632-74.752 28.16-18.432 18.944-28.16 45.056-28.16 74.24 0 32.256 13.312 66.048 36.864 89.088 13.824 13.824 41.472 32.256 86.016 32.256 21.504 0 46.592-5.12 69.12-20.48z" />
<glyph unicode="&#x64;" glyph-name="d" horiz-adv-x="271" d="M221.184 271.616l23.552 190.976h36.864l-46.080-373.248h-36.864l3.584 29.696c-8.192-12.288-18.944-20.992-29.696-26.624-12.8-6.656-26.624-9.216-41.472-9.216-23.552 0-45.568 5.632-65.024 24.064-15.872 15.36-31.232 41.472-31.232 78.336 0 34.304 13.824 70.144 36.864 92.16 17.92 17.408 45.056 29.184 75.776 29.184 13.312 0 32.768-3.584 46.080-10.24 9.728-5.12 19.968-13.824 27.648-25.088zM148.992 274.176c-17.92 0-34.816-5.12-49.664-18.944-14.336-13.312-26.624-36.352-26.624-66.048 0-27.136 10.752-44.544 19.968-54.272 14.336-15.36 31.232-18.944 47.104-18.944 16.384 0 34.304 3.072 50.176 18.432 17.408 17.408 24.576 46.080 24.576 67.072 0 21.504-7.168 40.96-19.456 54.272-12.8 13.824-29.184 18.432-46.080 18.432z" />
<glyph unicode="&#x65;" glyph-name="e" horiz-adv-x="248" d="M202.24 160.512l31.232-16.896c-9.728-16.384-25.088-34.304-39.424-44.032-20.992-13.824-43.52-16.384-61.44-16.384-25.088 0-49.152 4.608-70.144 26.624-12.8 13.312-28.16 36.864-28.16 76.288 0 36.352 13.824 68.608 36.352 91.136 22.016 22.016 46.080 29.696 74.24 29.696 35.84 0 56.832-12.8 69.12-25.088 15.36-15.872 29.696-45.056 24.064-93.696h-165.376c-0.512-30.208 9.728-47.104 18.944-56.32 12.288-12.288 26.624-15.872 41.984-15.872 12.288 0 27.136 2.048 40.96 11.776 10.752 7.68 21.504 21.504 27.648 32.768zM78.848 218.88h123.904c-0.512 15.36-7.168 31.744-17.92 41.984-11.776 11.264-27.136 13.312-38.912 13.312-18.944 0-33.792-5.12-46.592-17.92-9.216-9.216-16.896-22.528-20.48-37.376z" />
<glyph unicode="&#x66;" glyph-name="f" horiz-adv-x="123" d="M146.944 268.032h-52.224l-22.016-178.688h-36.864l22.016 178.688h-20.48l4.096 33.792h20.48l11.264 92.672c2.048 17.92 5.12 39.936 21.504 56.32 13.824 13.824 30.72 17.408 46.592 17.408 10.24 0 20.48-1.536 29.696-4.608l-4.608-35.84c-7.168 2.56-15.872 4.608-22.528 4.608-12.288 0-19.456-5.12-22.528-8.192-5.632-5.632-9.728-15.36-11.776-33.792l-10.752-88.576h52.224z" />
<glyph unicode="&#x67;" glyph-name="g" horiz-adv-x="270" d="M220.16 271.616l3.584 30.208h36.864l-25.088-207.36c-4.096-33.28-8.192-66.56-33.28-92.16-13.824-14.336-39.424-30.72-82.944-30.72-36.864 0-58.88 12.288-71.68 25.088-23.040 23.552-24.064 56.32-24.064 69.12v3.072h36.352v-2.048c0-14.848 1.536-33.28 16.896-47.616 13.312-12.288 30.208-14.848 44.032-14.848 27.648 0 44.544 9.728 53.76 18.944 18.944 18.432 21.504 45.568 23.552 65.024l3.072 30.72c-4.608-7.168-13.824-18.432-30.208-26.624-11.776-5.632-26.112-9.216-40.96-9.216-30.208 0-53.248 9.216-70.144 27.136-22.016 22.528-26.624 50.176-26.624 72.192 0 34.304 11.776 70.144 34.304 93.184 14.848 15.36 39.424 31.232 78.848 31.232 10.752 0 30.72-1.024 47.104-10.24 8.704-4.608 18.944-12.8 26.624-25.088zM150.528 274.176c-19.968 0-36.864-6.144-51.2-19.456-17.408-16.384-27.648-40.96-27.648-69.632 0-22.528 7.68-40.96 18.944-52.224 12.288-12.288 27.648-16.896 43.52-16.896 25.6 0 42.496 9.728 52.224 18.432 18.432 16.896 27.136 47.104 27.136 70.656 0 17.408-6.144 37.888-18.432 51.2-9.216 9.728-23.040 17.92-44.544 17.92z" />
<glyph unicode="&#x68;" glyph-name="h" horiz-adv-x="240" d="M34.816 89.344l46.080 373.248h36.864l-23.040-185.344c1.024 1.536 10.24 12.8 21.504 19.968 13.312 8.192 27.648 9.728 38.912 9.728 15.36 0 35.328-3.072 51.2-18.432 14.336-14.336 16.896-31.744 16.896-47.616 0-10.752-1.536-22.528-3.072-35.328l-14.336-116.224h-36.864l12.8 105.984c1.024 8.704 3.072 26.624 3.072 36.352 0 8.704-1.024 22.016-10.752 31.744-6.144 6.144-16.384 10.752-29.696 10.752-16.384 0-29.696-6.144-37.888-14.848-14.336-14.848-18.432-39.936-20.992-58.88l-13.824-111.104h-36.864z" />
<glyph unicode="&#x69;" glyph-name="i" horiz-adv-x="107" d="M60.928 301.824h36.864l-26.112-212.48h-36.864zM62.976 379.136c0 7.68 3.072 14.848 7.168 19.456 4.096 5.12 11.776 9.728 22.016 9.728 7.168 0 12.288-2.048 16.384-6.144 4.608-4.608 6.656-10.24 6.656-16.896 0-9.216-3.584-15.872-8.192-20.48-6.656-7.168-14.848-8.704-20.48-8.704-6.656 0-12.288 2.048-17.408 7.168-4.096 4.096-6.144 9.728-6.144 15.872z" />
<glyph unicode="&#x6a;" glyph-name="j" horiz-adv-x="106" d="M60.928 301.824h36.864l-40.96-330.24h-36.864zM62.464 379.136c0 7.68 3.072 14.848 7.168 19.456 4.096 5.12 11.776 9.728 22.016 9.728 7.168 0 12.288-2.048 16.384-6.144 4.608-4.608 6.656-10.24 6.656-16.896 0-9.216-3.584-15.872-8.192-20.48-6.656-7.168-14.848-8.704-20.48-8.704-6.656 0-12.288 2.048-17.408 7.168-4.096 4.096-6.144 9.728-6.144 15.872z" />
<glyph unicode="&#x6b;" glyph-name="k" horiz-adv-x="216" d="M80.896 462.592h36.864l-29.696-239.616 87.552 78.848h48.128l-103.424-91.136 92.672-121.344h-47.104l-73.216 96.768-10.24-9.216-10.752-87.552h-36.864z" />
<glyph unicode="&#x6c;" glyph-name="l" horiz-adv-x="107" d="M80.896 462.592h36.864l-46.080-373.248h-36.864z" />
<glyph unicode="&#x6d;" glyph-name="m" horiz-adv-x="350" d="M34.816 89.344l26.112 212.48h36.864l-2.56-22.528c5.12 7.68 11.264 14.336 20.48 19.456 11.264 6.144 20.992 8.192 32.768 8.192 12.288 0 25.6-2.56 35.328-8.704 9.216-5.632 17.408-16.384 21.504-25.6 5.632 10.24 13.824 18.432 22.528 24.064 12.288 7.68 26.112 10.24 39.936 10.24 17.408 0 35.328-4.096 49.664-17.92 13.312-12.8 16.896-28.16 16.896-43.52 0-11.264-2.048-24.064-4.096-42.496l-13.824-113.664h-36.864l14.336 113.664c1.536 11.776 3.072 22.016 3.072 31.744 0 7.168-1.024 19.968-10.24 29.184-4.096 4.096-12.288 10.24-26.624 10.24-13.824 0-24.576-5.632-31.744-12.288-13.312-12.8-17.408-31.744-19.968-54.272l-14.336-118.272h-36.864l15.36 125.952c2.048 14.848 4.608 35.328-8.704 48.64-5.12 5.632-13.824 10.24-27.136 10.24-11.776 0-22.016-4.096-30.208-12.288-14.848-14.848-18.432-38.4-20.48-56.832l-14.336-115.712h-36.864z" />
<glyph unicode="&#x6e;" glyph-name="n" horiz-adv-x="240" d="M34.816 89.344l26.112 212.48h36.864l-3.072-24.576c1.024 1.536 10.24 12.8 21.504 19.968 13.312 8.192 27.648 9.728 39.424 9.728 15.36 0 35.328-3.072 50.688-18.432 14.336-14.336 16.896-31.744 16.896-47.616 0-10.752-1.536-22.528-3.072-35.328l-14.336-116.224h-36.864l12.8 105.984c1.024 8.704 3.072 26.624 3.072 36.352 0 8.704-1.024 22.016-10.752 31.744-6.144 6.144-16.384 10.752-29.696 10.752-16.384 0-29.696-6.144-37.888-14.848-14.336-14.848-18.432-39.936-20.992-58.88l-13.824-111.104h-36.864z" />
<glyph unicode="&#x6f;" glyph-name="o" horiz-adv-x="271" d="M137.216 83.2c-30.208 0-55.296 7.68-75.776 29.184-14.848 15.872-27.136 39.936-27.136 74.24 0 30.72 10.24 62.464 38.4 88.576 23.552 21.504 50.688 31.744 84.992 31.744 34.816 0 59.904-11.264 77.824-29.184 21.504-21.504 26.112-47.616 26.112-69.632 0-46.080-18.944-75.776-35.84-92.16-27.136-26.624-59.904-32.768-88.576-32.768zM157.184 274.176c-14.336 0-37.376-3.584-57.856-23.552-17.92-17.408-27.136-40.96-27.136-66.56 0-24.064 10.24-39.424 18.432-48.128 7.68-8.192 23.040-19.968 49.152-19.968 26.624 0 45.568 11.264 57.856 24.576 15.872 16.896 25.6 42.496 25.6 67.072 0 21.504-8.192 37.376-17.408 47.104-10.752 11.264-27.648 19.456-48.64 19.456z" />
<glyph unicode="&#x70;" glyph-name="p" horiz-adv-x="271" d="M75.264 119.040l-18.432-147.456h-36.864l40.96 330.24h36.864l-3.584-29.696c9.728 12.8 20.992 20.48 29.696 25.088 14.336 7.68 28.16 9.728 43.52 9.728 18.432 0 45.056-3.584 66.56-24.576 16.384-15.872 27.648-38.912 27.648-73.216 0-40.448-14.848-76.288-37.376-98.304-23.552-23.040-49.664-27.648-76.288-27.648-13.824 0-32.256 1.536-48.64 11.776-9.728 6.144-18.432 15.36-24.064 24.064zM146.944 115.968c17.408 0 33.792 4.608 48.128 17.92 19.456 17.92 28.672 46.592 28.672 72.704 0 25.6-10.24 41.472-18.432 49.664-9.216 9.728-24.064 17.92-47.104 17.92s-39.424-8.192-52.736-22.528c-15.36-16.384-23.552-39.936-23.552-64.512 0-16.384 3.584-34.816 17.408-50.688 13.312-14.848 29.696-20.48 47.616-20.48z" />
<glyph unicode="&#x71;" glyph-name="q" horiz-adv-x="271" d="M221.696 271.616l3.584 30.208h36.864l-40.96-330.24h-36.864l18.432 147.456c-5.632-7.68-14.848-18.432-29.696-26.112-16.384-8.192-31.232-9.728-45.056-9.728-25.6 0-48.128 5.632-67.584 26.624-21.504 22.528-25.6 50.176-25.6 70.656 0 38.4 13.824 74.24 36.864 96.768 25.088 24.576 55.296 29.696 81.408 29.696 15.36 0 28.672-2.048 43.52-10.752 11.776-6.656 19.456-14.848 25.088-24.576zM150.528 274.176c-19.456 0-36.352-5.632-50.688-20.48-17.92-18.432-26.624-47.104-26.624-72.704 0-24.576 9.216-39.424 17.408-48.128 11.776-12.288 26.112-16.896 44.032-16.896 19.456 0 37.888 5.12 53.76 20.992 17.408 17.408 26.624 43.008 26.624 68.096s-9.216 40.96-17.408 49.664c-9.216 10.24-24.064 19.456-47.104 19.456z" />
<glyph unicode="&#x72;" glyph-name="r" horiz-adv-x="152" d="M34.816 89.344l26.112 212.48h36.864l-3.072-23.040c4.096 6.656 10.752 14.336 21.504 20.48 10.24 5.632 19.456 7.68 30.72 7.68 12.8 0 22.528-3.072 31.232-8.704l-21.504-33.28c-4.096 3.072-10.752 7.168-22.016 7.168-10.24 0-19.968-3.072-28.16-11.264-14.848-14.336-18.432-38.4-20.992-59.392l-13.824-112.128h-36.864z" />
<glyph unicode="&#x73;" glyph-name="s" horiz-adv-x="179" d="M173.568 268.544l-32.256-15.872c-2.048 6.656-5.632 11.264-8.704 14.336-5.632 5.632-11.264 7.168-18.432 7.168-7.68 0-14.336-1.536-20.48-6.656-5.632-5.12-8.192-11.776-8.192-18.944s3.072-11.776 6.144-14.848c5.12-5.12 13.312-8.704 20.992-12.288l19.456-9.728c8.192-4.096 20.48-12.288 27.136-18.944 10.24-11.264 13.824-24.064 13.824-37.888 0-19.456-6.656-36.864-17.92-49.152-18.944-20.48-45.568-22.528-60.928-22.528s-30.208 2.048-44.544 13.824c-11.776 9.728-20.992 24.576-25.088 40.448l32.256 13.312c2.048-7.68 6.656-18.432 12.8-25.088 7.168-7.168 15.872-9.728 25.6-9.728 6.656 0 18.944 0.512 28.672 9.216 7.168 6.656 10.752 16.896 10.752 27.136 0 9.216-4.096 16.384-11.264 22.016-3.584 3.072-14.848 9.216-22.016 12.8l-11.776 5.632c-8.704 4.096-21.504 11.776-28.16 19.456-8.704 9.728-11.776 20.992-11.776 33.28 0 19.456 8.192 33.792 17.92 43.52 14.848 14.848 31.744 17.92 48.128 17.92 13.312 0 25.6-2.56 38.4-12.8 8.192-6.656 15.36-15.872 19.456-25.6z" />
<glyph unicode="&#x74;" glyph-name="t" horiz-adv-x="110" d="M131.584 268.032h-36.864l-22.016-178.688h-36.864l22.016 178.688h-22.528l4.096 33.792h22.528l9.216 76.8h36.864l-9.216-76.8h36.864z" />
<glyph unicode="&#x75;" glyph-name="u" horiz-adv-x="238" d="M97.28 301.824l-13.824-112.128c-1.024-9.728-2.048-17.408-2.048-27.648 0-13.824 1.536-25.6 12.8-35.328 8.192-7.168 19.968-10.752 31.744-10.752 14.848 0 26.624 5.632 34.304 12.8 12.288 12.288 14.848 31.232 17.92 55.296l14.336 117.76h36.864l-14.848-121.856c-3.584-28.16-7.168-55.296-26.112-74.752-19.456-19.456-45.568-22.016-61.44-22.016-28.672 0-48.128 7.168-61.952 19.456-16.384 14.336-20.992 32.256-20.992 53.76 0 10.24 2.048 27.136 3.072 36.352l13.312 109.056h36.864z" />
<glyph unicode="&#x76;" glyph-name="v" horiz-adv-x="217" d="M30.208 301.824h39.936l46.080-143.36 80.896 143.36h41.984l-132.096-226.304z" />
<glyph unicode="&#x77;" glyph-name="w" horiz-adv-x="349" d="M30.208 301.824h39.936l45.056-144.384 86.528 160.768 46.080-160.768 81.408 144.384h41.984l-133.632-227.328-45.568 158.72-85.504-158.72z" />
<glyph unicode="&#x78;" glyph-name="x" horiz-adv-x="232" d="M4.096 89.344l104.448 113.664-65.024 98.816h44.032l46.080-72.192 64.512 72.192h45.056l-90.112-99.328 74.24-113.152h-44.032l-56.32 86.528-77.824-86.528h-45.056z" />
<glyph unicode="&#x79;" glyph-name="y" horiz-adv-x="236" d="M19.968-28.416l84.48 137.728-74.24 192.512h40.96l56.32-152.064 88.064 152.064h41.984l-196.608-330.24h-40.96z" />
<glyph unicode="&#x7a;" glyph-name="z" horiz-adv-x="236" d="M257.536 301.824l-175.616-178.688h147.456l-4.096-33.792h-221.184l175.616 178.688h-123.904l4.096 33.792h197.632z" />
<glyph unicode="&#x7b;" glyph-name="braceleft" horiz-adv-x="258" d="M175.104 386.816l-11.776-96.768c-1.536-12.8-3.584-23.552-10.752-35.328-8.192-12.8-18.432-18.944-27.648-22.528 8.704-3.584 14.848-9.216 18.432-14.848 5.632-8.192 7.168-16.384 7.168-24.576 0-6.144-1.024-12.288-1.536-18.432l-11.264-93.184c-1.024-6.656-2.048-14.336-2.048-21.504 0-8.192 1.536-16.896 11.264-22.016 7.168-4.096 16.896-4.096 26.112-4.096h7.68l-4.096-31.232h-13.824c-14.848 0-33.28 1.024-46.080 9.728-16.384 10.752-18.944 27.136-18.944 39.936 0 8.704 2.048 24.576 2.56 28.16l11.264 84.992c1.024 7.168 1.536 13.312 1.536 18.432 0 14.336-3.584 20.48-7.168 24.576-5.632 6.656-12.288 8.704-17.408 9.216l3.584 29.696c10.24 2.048 19.456 7.68 24.576 14.336 6.656 8.192 8.704 19.968 10.24 31.232l12.288 100.352c2.048 14.848 6.656 41.984 29.696 57.856 16.384 11.264 34.816 11.776 50.688 11.776h13.824l-3.584-31.232h-7.68c-8.704 0-23.552-0.512-32.768-8.192-11.776-9.728-13.312-25.6-14.336-36.352z" />
<glyph unicode="&#x7c;" glyph-name="bar" d="M109.568-38.656v512h36.864v-512h-36.864z" />
<glyph unicode="&#x7d;" glyph-name="braceright" horiz-adv-x="258" d="M113.664 78.080l11.776 96.256c1.536 11.264 3.584 24.576 11.264 36.864 8.192 12.8 18.944 18.432 27.136 20.992-6.144 3.072-12.8 7.68-17.408 13.824-6.656 8.704-7.68 17.408-7.68 25.6 0 5.632 0.512 14.336 2.56 32.768l8.192 68.608c2.56 19.968 2.56 26.112 2.56 28.16 0 8.192-1.536 17.92-9.728 24.064-7.168 5.12-19.456 6.144-27.136 6.144h-7.68l3.584 31.232h13.824c16.896 0 35.84-2.048 46.592-9.728 9.216-6.144 18.432-18.944 18.432-42.496 0-11.264-1.536-22.016-3.072-34.816l-8.704-70.144c-1.024-9.216-2.56-15.872-2.56-25.6 0-8.704 0.512-18.432 8.704-25.6 4.096-3.584 9.728-6.144 15.872-7.168l-3.584-29.696c-11.776-1.024-19.456-6.656-24.576-13.824-7.168-9.728-9.728-25.6-10.24-31.744l-12.288-99.84c-1.536-13.312-6.144-37.376-20.48-51.712-16.384-15.872-41.984-17.92-60.416-17.92h-13.824l4.096 31.232h7.68c7.168 0 24.576 0.512 33.792 8.704s11.776 24.576 13.312 35.84z" />
<glyph unicode="&#x7e;" glyph-name="asciitilde" d="M247.296 274.176l20.992-13.312c-7.68-13.312-18.432-27.136-30.208-37.376-14.848-13.312-30.208-19.968-51.712-19.968-19.456 0-33.28 7.168-55.296 18.432-13.312 7.168-29.696 15.36-45.056 15.36-10.24 0-18.944-3.584-27.136-10.24-7.68-6.656-16.384-18.432-20.992-26.624l-20.992 13.312c6.144 11.264 18.944 30.208 29.184 39.936 14.848 14.336 31.744 19.456 48.64 19.456 18.432 0 33.792-6.656 58.88-19.456 13.824-7.168 27.648-14.336 43.008-14.336 12.288 0 21.504 3.584 30.208 10.752 7.68 6.144 15.36 15.872 20.48 24.064z" />
<glyph unicode="&#xa1;" glyph-name="exclamdown" horiz-adv-x="144" d="M76.8 243.968h36.864l-33.28-272.384h-36.864zM75.264 290.048c0 10.752 5.632 17.408 8.192 19.968 5.12 5.632 12.8 8.192 19.968 8.192s12.8-2.56 16.896-6.656 6.656-10.24 6.656-17.408c0-5.12-1.536-13.312-9.728-20.48-5.632-4.608-11.776-6.656-18.432-6.656-8.704 0-14.336 3.584-17.408 6.656s-6.144 8.704-6.144 16.384z" />
<glyph unicode="&#xa2;" glyph-name="cent" horiz-adv-x="291" d="M263.168 354.56l-5.12-44.032c-6.144 8.192-14.848 15.872-23.552 21.504s-17.408 8.192-27.136 8.704l-18.944-156.16c11.776 0.512 20.992 3.584 31.744 9.216 10.24 5.632 19.456 12.8 27.648 23.552l-5.12-44.032c-23.552-17.92-46.080-20.992-58.368-21.504l-6.656-55.296h-30.72l6.656 56.32c-24.576 3.072-42.496 14.336-54.272 26.624-18.432 18.944-28.16 45.056-28.16 74.24 0 32.256 13.312 66.56 36.864 89.088 13.312 13.312 37.888 29.696 73.216 31.744l6.144 50.176h30.72l-6.656-51.2c21.504-2.048 38.912-10.24 51.712-18.944zM157.696 186.624l19.456 154.624c-11.776-1.536-30.72-7.168-47.104-26.112-12.288-14.336-20.992-34.816-20.992-58.88 0-18.944 5.12-35.328 13.312-46.080 7.168-9.728 19.456-18.944 35.328-23.552z" />
<glyph unicode="&#xa3;" glyph-name="sterling" horiz-adv-x="291" d="M281.088 323.84h-37.376c1.024 5.632 1.536 10.752 1.536 16.384 0 16.384-4.608 32.256-14.336 42.496-9.216 9.728-24.576 16.896-44.032 16.896-19.968 0-37.888-7.68-48.128-18.432-9.216-9.216-16.384-25.088-16.384-45.056 0-8.704 1.536-27.136 14.336-60.928l9.728-25.6h64.512l-3.584-28.672h-54.784c2.048-7.68 3.584-16.384 3.584-25.6 0-11.264-2.048-30.72-17.408-53.76l28.672-11.776c16.384-6.656 27.648-10.24 36.864-10.24 11.264 0 19.456 4.096 27.136 11.776 7.168 6.656 13.824 15.872 17.92 23.552l28.672-18.432c-7.68-13.824-20.48-30.208-31.232-38.4-14.848-11.776-30.208-14.336-44.032-14.336-16.896 0-29.184 3.584-41.472 8.704l-14.848 6.144c-22.016 9.216-34.816 11.776-44.544 11.776-11.264 0-19.456-4.096-27.136-10.24-5.632-4.608-12.8-12.288-16.896-17.408l-26.624 19.968c8.704 11.264 19.968 22.528 29.696 29.696 11.776 8.192 24.064 13.312 39.936 13.824 13.824 19.456 16.896 36.352 16.896 47.616 0 9.728-1.024 17.92-4.608 27.136h-57.344l3.584 28.672h44.544l-6.656 18.944c-7.168 20.48-14.848 43.008-14.848 64.512 0 27.136 10.24 52.736 28.16 71.68 19.456 20.48 43.52 30.72 77.312 30.72 35.328 0 56.832-12.8 69.12-24.064 17.408-15.872 26.112-40.448 26.112-66.048 0-7.168-0.512-14.336-2.048-21.504z" />
<glyph unicode="&#xa4;" glyph-name="currency" horiz-adv-x="342" d="M70.656 414.976l48.64-48.128c25.088 21.504 54.784 26.112 74.24 26.112s49.152-4.608 74.24-26.112l48.64 48.128 20.48-20.48-48.64-48.64c21.504-25.088 26.112-53.76 26.112-72.704s-4.608-47.616-26.112-72.704l48.128-48.128-20.48-20.48-48.128 47.616c-25.088-21.504-54.784-26.112-74.24-26.112s-49.152 4.608-74.24 26.112l-48.128-47.616-20.48 20.48 48.128 48.128c-21.504 25.088-26.112 53.76-26.112 72.704s4.608 47.616 26.112 72.704l-48.64 48.64zM193.536 186.112c30.208 0 49.664 12.288 61.44 24.064 16.896 17.408 24.576 40.96 24.576 62.976 0 25.6-10.24 48.128-25.088 62.976-13.312 13.312-34.304 24.064-60.928 24.064-25.6 0-47.104-9.728-61.44-24.064s-24.576-36.864-24.576-62.976c0-17.92 4.608-42.496 25.088-62.976 17.408-17.408 38.4-24.064 60.928-24.064z" />
<glyph unicode="&#xa5;" glyph-name="yen" horiz-adv-x="291" d="M289.28 285.952h-72.192l-31.744-45.056h98.304l-3.584-28.672h-101.376l-14.848-122.88h-37.888l14.848 122.88h-99.84l3.584 28.672h96.768l-20.48 45.056h-70.656l3.584 28.672h54.272l-52.736 116.224h43.52l68.096-152.576 107.008 152.576h45.568l-82.432-116.224h55.808z" />
<glyph unicode="&#xa6;" glyph-name="brokenbar" d="M109.568 289.024v184.32h36.864v-184.32h-36.864zM109.568-38.656v184.32h36.864v-184.32h-36.864z" />
<glyph unicode="&#xa7;" glyph-name="section" horiz-adv-x="290" d="M271.36 365.824h-36.864c1.024 5.12 1.024 10.24 1.024 14.336 0 19.456-7.168 30.72-15.36 37.376-6.144 5.12-16.896 11.264-34.816 11.264-13.824 0-27.648-3.072-38.912-14.336-8.704-8.192-14.848-20.48-14.848-35.84 0-16.384 7.168-27.648 14.336-34.304 11.264-10.24 28.16-15.872 41.984-21.504l13.312-5.632c13.312-5.632 29.184-14.848 38.4-25.6 10.752-12.288 17.92-30.72 17.92-54.272 0-20.48-5.12-38.4-17.408-53.76-9.728-12.288-24.064-23.040-41.472-29.184 9.216-7.168 18.432-16.896 23.552-26.112 6.656-11.264 8.704-20.992 8.704-34.304 0-23.040-4.608-47.104-25.088-66.56-13.824-13.312-36.352-25.088-69.632-25.088-17.92 0-39.424 3.584-57.344 19.968-16.896 15.36-26.624 39.936-26.624 74.752h36.864c0-13.824 2.56-30.72 10.24-41.984 11.264-16.384 26.624-18.944 39.424-18.944 21.504 0 33.28 8.192 39.424 14.336 8.704 8.704 14.336 21.504 14.336 36.864 0 14.336-5.632 24.576-11.776 30.72-4.096 4.608-12.8 11.264-34.304 20.48l-16.896 7.168c-7.68 3.072-28.16 12.8-41.984 27.648-10.24 11.264-19.968 28.672-19.968 54.272 0 20.48 6.656 39.936 16.384 52.736 9.216 12.288 25.088 24.576 44.544 31.232-30.208 19.968-33.792 47.616-33.792 62.976 0 28.16 10.752 48.128 25.6 62.464 20.992 20.48 47.104 25.6 69.632 25.6 17.408 0 40.96-3.584 58.88-20.992 12.8-12.288 23.040-31.744 23.040-62.464 0-4.096 0-8.704-0.512-13.312zM166.4 288.512c-21.504 0-35.84-7.68-44.544-16.896-9.216-9.728-15.872-25.6-15.872-43.008 0-14.848 4.608-27.136 14.336-36.864 12.8-12.8 28.672-14.848 40.448-14.848 21.504 0 34.304 9.216 41.472 15.872 8.192 7.68 16.384 21.504 16.384 42.496s-8.704 32.768-14.848 38.912c-11.776 12.288-26.624 14.336-37.376 14.336z" />
<glyph unicode="&#xa8;" glyph-name="dieresis" d="M181.248 367.36c0 7.68 3.584 15.36 8.704 20.48 4.096 4.096 10.752 8.704 20.48 8.704 12.288 0 22.528-9.216 22.528-22.528 0-6.656-3.584-14.848-9.216-20.48s-12.8-8.192-19.456-8.192c-11.776 0-23.040 8.704-23.040 22.016zM92.16 367.36c0 7.68 3.584 15.36 8.704 20.48 4.096 4.096 10.752 8.704 20.48 8.704 12.288 0 22.528-9.216 22.528-22.528 0-6.656-3.584-14.848-9.216-20.48s-12.8-8.192-19.456-8.192c-11.776 0-23.040 8.704-23.040 22.016z" />
<glyph unicode="&#xa9;" glyph-name="copyright" horiz-adv-x="379" d="M284.16 343.808v-40.96c-23.040 28.672-55.296 29.696-62.464 29.696-22.528 0-39.936-9.216-52.224-22.528-14.336-15.872-18.432-33.28-18.432-50.688 0-19.968 4.096-37.376 18.944-53.248 9.216-10.24 26.112-22.016 51.2-22.016 26.112 0 49.152 12.8 64.512 31.232v-41.472c-24.576-17.92-47.104-20.48-63.488-20.48-27.648 0-54.272 7.68-76.288 29.184-19.456 19.456-30.208 46.080-30.208 74.752 0 26.624 10.24 55.808 30.208 76.288 15.36 15.36 39.936 29.696 75.776 29.696 19.456 0 41.472-4.096 62.464-19.456zM387.072 260.352c0-57.856-25.6-97.792-48.128-121.856-26.624-28.16-69.12-54.784-128.512-54.784s-101.888 26.624-128.512 54.784c-22.528 24.064-48.128 64-48.128 121.856 0 57.344 25.6 97.28 48.128 121.344 26.624 28.16 69.12 54.784 128.512 54.784s101.888-26.624 128.512-54.784c22.528-24.064 48.128-64 48.128-121.344zM210.432 407.808c-36.864 0-77.312-15.872-103.936-41.984-28.672-27.648-44.032-68.096-44.032-105.472 0-37.888 15.36-78.336 44.032-105.984 26.624-26.112 67.072-41.984 103.936-41.984s77.312 15.872 103.936 41.984c28.672 27.648 44.032 68.096 44.032 105.984 0 37.376-15.36 77.824-44.032 105.472-26.624 26.112-67.072 41.984-103.936 41.984z" />
<glyph unicode="&#xaa;" glyph-name="ordfeminine" horiz-adv-x="187" d="M171.008 410.368l2.048 17.408h26.112l-16.896-136.192h-26.112l2.048 16.384c-5.12-6.144-10.752-10.24-17.408-13.824-9.728-5.12-17.92-6.656-27.648-6.656-22.016 0-36.352 7.68-45.568 16.384-10.24 9.728-18.432 24.064-18.432 46.592 0 26.624 11.264 49.152 27.648 62.976 12.8 10.752 30.208 17.408 50.688 17.408 7.168 0 17.408-1.024 26.624-5.632 5.12-2.56 11.264-7.168 16.896-14.848zM126.976 408.32c-11.776 0-24.576-3.584-34.816-13.824-10.24-9.728-16.896-25.6-16.896-40.96 0-11.264 4.096-23.040 11.776-31.232 6.656-7.168 17.92-12.288 31.232-12.288 14.336 0 26.112 6.144 33.792 14.336 9.216 9.728 14.848 24.064 14.848 40.96 0 16.384-6.656 26.112-12.288 31.744s-14.848 11.264-27.648 11.264zM43.008 259.84h135.68l-2.56-21.504h-135.68z" />
<glyph unicode="&#xab;" glyph-name="guillemotleft" horiz-adv-x="220" d="M70.656 197.888l52.224-74.752-25.6-18.432-65.536 93.184 88.576 96.256 21.504-18.944zM146.432 197.888l52.224-74.752-25.6-18.432-65.536 93.184 88.576 96.256 21.504-18.944z" />
<glyph unicode="&#xac;" glyph-name="logicalnot" d="M245.76 89.344h-35.84v103.936h-186.368v32.768h222.208v-136.704z" />
<glyph unicode="&#xad;" glyph-name="uni00AD" horiz-adv-x="164" d="M36.864 179.456l4.608 37.888h112.64l-4.608-37.888h-112.64z" />
<glyph unicode="&#xae;" glyph-name="registered" horiz-adv-x="379" d="M280.576 163.584h-34.816l-62.464 80.896v-80.896h-27.648v191.488h34.816c15.872 0 42.496 0 59.392-17.92 8.192-8.192 14.336-21.504 14.336-37.376 0-16.896-6.656-29.696-14.336-36.864-8.192-8.192-22.528-13.824-35.328-15.872zM183.296 330.496v-61.44h11.264c11.264 0 24.576 0.512 33.28 8.704 7.168 6.656 8.704 14.848 8.704 22.016 0 6.144-1.024 14.848-6.656 20.992-5.12 5.632-14.848 9.728-36.352 9.728h-10.24zM387.072 259.328c0-57.856-25.6-97.792-48.128-121.856-26.624-28.16-69.12-54.784-128.512-54.784s-101.888 26.624-128.512 54.784c-22.528 24.064-48.128 64-48.128 121.856 0 57.344 25.6 97.28 48.128 121.344 26.624 28.16 69.12 54.784 128.512 54.784s101.888-26.624 128.512-54.784c22.528-24.064 48.128-64 48.128-121.344zM210.432 406.784c-36.864 0-77.312-15.872-103.936-41.984-28.672-27.648-44.032-68.096-44.032-105.472 0-37.888 15.36-78.336 44.032-105.984 26.624-26.112 67.072-41.984 103.936-41.984s77.312 15.872 103.936 41.984c28.672 27.648 44.032 68.096 44.032 105.984 0 37.376-15.36 77.824-44.032 105.472-26.624 26.112-67.072 41.984-103.936 41.984z" />
<glyph unicode="&#xaf;" glyph-name="macron" d="M82.944 352l3.584 30.72h154.624l-3.584-30.72h-154.624z" />
<glyph unicode="&#xb0;" glyph-name="degree" horiz-adv-x="254" d="M88.576 355.584c0 20.992 7.68 40.96 22.016 55.808 14.848 15.36 32.256 20.48 51.712 20.48 26.624 0 41.984-9.216 50.688-17.92 14.848-14.336 17.92-32.256 17.92-47.616 0-14.848-2.048-37.888-21.504-56.32-16.896-16.384-38.4-19.456-53.76-19.456-25.088 0-41.472 9.216-51.2 19.968-8.192 9.216-15.872 24.064-15.872 45.056zM114.176 356.608c0-12.8 4.608-24.064 11.264-30.72 4.096-4.608 13.824-11.776 31.232-11.776 14.848 0 25.6 5.12 33.28 12.8 9.216 8.704 15.36 23.040 15.36 38.912 0 16.896-7.68 26.624-12.8 31.744-3.584 3.072-13.312 10.752-30.72 10.752-16.896 0-27.136-7.168-33.28-13.312-9.216-9.728-14.336-25.6-14.336-38.4z" />
<glyph unicode="&#xb1;" glyph-name="plusminus" d="M31.744 265.984v33.792h92.672v87.552h36.864v-87.552h92.672v-33.792h-92.672v-87.552h-36.864v87.552h-92.672zM31.744 123.648v33.792h222.208v-33.792h-222.208z" />
<glyph unicode="&#xb2;" glyph-name="twosuperior" horiz-adv-x="179" d="M168.448 226.048h-135.68l85.504 86.528c18.432 18.944 25.6 26.624 29.184 31.744 7.68 9.728 13.312 19.968 13.312 34.304 0 6.656-1.536 15.36-9.216 22.528-8.192 7.68-18.432 9.216-27.648 9.216s-20.992-2.048-29.696-11.264c-6.656-7.168-11.264-19.968-11.776-30.72h-25.6c1.536 19.456 10.24 36.864 22.016 48.128 12.8 12.288 28.672 17.408 47.616 17.408 23.040 0 36.864-8.192 44.544-15.36 9.216-8.704 16.384-22.016 16.384-38.4 0-23.552-11.776-38.912-21.504-50.688-11.776-13.824-21.504-23.040-32.768-34.304l-45.056-45.568h83.456z" />
<glyph unicode="&#xb3;" glyph-name="threesuperior" horiz-adv-x="179" d="M43.008 281.856h25.6c0-8.704 3.584-19.456 9.728-26.112 7.68-8.192 18.432-9.728 26.624-9.728 10.24 0 20.48 2.048 29.184 10.752 5.632 6.144 11.776 15.872 11.776 32.768 0 6.144-0.512 16.384-8.704 24.064s-19.456 8.192-27.648 8.192h-2.56l2.56 23.552h3.584c8.192 0 23.040 1.024 32.256 10.752 5.12 5.12 8.704 13.824 8.704 24.576 0 8.704-2.56 15.872-7.168 20.992s-12.8 8.704-23.552 8.704-19.456-3.584-24.576-8.704c-6.144-6.144-10.24-16.896-11.264-24.064h-25.6c2.56 14.848 10.24 32.256 19.968 41.472 13.824 13.312 32.768 14.848 42.496 14.848 23.552 0 36.352-8.704 42.496-14.336 11.264-10.24 14.336-23.552 14.336-36.864 0-11.264-2.56-22.016-9.216-31.232-5.632-7.68-13.312-13.824-23.040-17.92 5.632-2.56 12.288-7.168 17.408-15.36 5.632-9.216 6.656-18.944 6.656-26.112 0-18.944-6.144-37.888-18.944-50.688-16.384-16.896-36.352-18.944-51.2-18.944-15.36 0-28.16 2.56-39.936 12.8-12.288 10.752-19.456 28.16-19.968 46.592z" />
<glyph unicode="&#xb4;" glyph-name="acute" d="M201.728 430.336l35.84-17.408-77.312-69.12-21.504 12.288z" />
<glyph unicode="&#xb5;" glyph-name="mu" horiz-adv-x="268" d="M56.832-28.416h-36.864l40.448 330.24h36.864l-11.776-96.256c-1.024-7.168-2.56-28.672-2.56-35.328 0-10.752 2.048-27.648 15.36-40.448 7.68-7.168 20.48-13.824 40.448-13.824 17.92 0 32.256 5.12 45.056 17.408 14.848 14.336 21.504 34.816 25.6 67.072l12.288 101.376h36.864l-26.112-212.48h-36.864l4.608 35.84c-5.632-11.776-14.848-23.552-23.552-29.696-14.336-10.752-30.208-12.288-41.984-12.288-13.312 0-28.16 2.048-41.472 14.336-8.192 7.168-14.336 17.92-17.92 28.16z" />
<glyph unicode="&#xb6;" glyph-name="paragraph" horiz-adv-x="298" d="M139.264 40.704h-31.744l25.6 209.408h-7.68c-25.6 0-47.104 9.216-60.928 22.528-12.8 12.288-22.528 31.744-22.528 56.832 0 24.576 8.704 51.712 27.648 70.144 27.136 27.136 65.024 31.232 96.768 31.232h137.216l-3.584-29.696h-30.72l-44.544-360.448h-31.744l44.544 360.448h-54.272z" />
<glyph unicode="&#xb7;" glyph-name="periodcentered" horiz-adv-x="103" d="M39.936 259.84c0 9.728 4.608 19.456 11.264 26.112 7.68 8.192 16.896 10.24 24.064 10.24 9.216 0 17.408-3.584 22.528-9.216 4.096-4.096 7.68-10.24 7.68-19.456 0-8.704-3.072-18.432-10.24-25.6-5.12-5.12-13.824-11.264-26.112-11.264-7.68 0-14.336 2.048-19.968 7.168-5.12 5.12-9.216 12.288-9.216 22.016z" />
<glyph unicode="&#xb8;" glyph-name="cedilla" d="M133.12 62.72l31.744-13.824-59.392-65.536-23.552 12.288z" />
<glyph unicode="&#xb9;" glyph-name="onesuperior" horiz-adv-x="179" d="M101.888 226.048l22.016 181.248h-39.936l15.36 23.552h54.272l-25.088-204.8h-26.624z" />
<glyph unicode="&#xba;" glyph-name="ordmasculine" horiz-adv-x="188" d="M130.048 430.848c20.992 0 39.424-7.68 51.712-20.48 9.216-9.216 18.944-25.6 18.944-49.664 0-21.504-8.192-37.376-20.48-49.664s-32.256-22.528-59.392-22.528c-24.576 0-40.448 9.216-51.2 19.456-8.704 8.704-19.456 23.552-19.456 47.104 0 23.040 10.24 43.008 24.576 55.808 13.824 12.8 33.28 19.968 55.296 19.968zM44.032 259.84h138.752l-2.56-21.504h-138.752zM129.536 408.32c-17.92 0-29.696-5.632-37.376-12.8-10.24-9.216-16.384-24.576-16.384-38.912 0-12.288 4.096-24.576 11.776-32.768 6.144-6.144 16.896-12.8 34.816-12.8 16.896 0 28.16 5.632 35.328 11.776 8.192 7.168 16.896 19.968 16.896 39.936 0 15.36-5.632 25.6-11.776 32.256-10.24 11.264-23.552 13.312-33.28 13.312z" />
<glyph unicode="&#xbb;" glyph-name="guillemotright" horiz-adv-x="220" d="M100.864 200.96l-52.224 74.752 25.6 18.432 65.536-93.184-88.576-96.256-21.504 18.944zM176.64 200.96l-52.224 74.752 25.6 18.432 65.536-93.184-88.576-96.256-21.504 18.944z" />
<glyph unicode="&#xbc;" glyph-name="onequarter" horiz-adv-x="390" d="M101.888 226.048l22.016 181.248h-39.936l15.36 23.552h54.272l-25.088-204.8h-26.624zM96.256 94.464l240.64 343.040 18.432-11.264-241.152-343.552zM271.872 151.808h57.856l9.728 79.36zM374.272 305.408l-18.944-153.6h25.088l-3.072-23.552h-25.088l-4.608-38.912h-25.6l4.608 38.912h-104.96z" />
<glyph unicode="&#xbd;" glyph-name="onehalf" horiz-adv-x="390" d="M101.888 226.048l22.016 181.248h-39.936l15.36 23.552h54.272l-25.088-204.8h-26.624zM75.776 94.464l240.64 343.040 18.432-11.264-241.152-343.552zM361.984 89.344h-135.68l85.504 86.528c18.432 18.944 25.6 26.624 29.184 31.744 7.68 9.728 13.312 19.968 13.312 34.304 0 6.656-1.536 15.36-9.216 22.528-8.192 7.68-18.432 9.216-27.648 9.216s-20.992-2.048-29.696-11.264c-6.656-7.168-11.264-19.968-11.776-30.72h-25.6c1.536 19.456 10.24 36.864 22.016 48.128 12.8 12.288 28.672 17.408 47.616 17.408 23.040 0 36.864-8.192 44.544-15.36 9.216-8.704 16.384-22.016 16.384-38.4 0-23.552-11.776-38.912-21.504-50.688-11.776-13.824-21.504-23.040-32.768-34.304l-45.056-45.568h83.456z" />
<glyph unicode="&#xbe;" glyph-name="threequarters" horiz-adv-x="390" d="M43.008 281.856h25.6c0-8.704 3.584-19.456 9.728-26.112 7.68-8.192 18.432-9.728 26.624-9.728 10.24 0 20.48 2.048 29.184 10.752 5.632 6.144 11.776 15.872 11.776 32.768 0 6.144-0.512 16.384-8.704 24.064s-19.456 8.192-27.648 8.192h-2.56l2.56 23.552h3.584c8.192 0 23.040 1.024 32.256 10.752 5.12 5.12 8.704 13.824 8.704 24.576 0 8.704-2.56 15.872-7.168 20.992s-12.8 8.704-23.552 8.704-19.456-3.584-24.576-8.704c-6.144-6.144-10.24-16.896-11.264-24.064h-25.6c2.56 14.848 10.24 32.256 19.968 41.472 13.824 13.312 32.768 14.848 42.496 14.848 23.552 0 36.352-8.704 42.496-14.336 11.264-10.24 14.336-23.552 14.336-36.864 0-11.264-2.56-22.016-9.216-31.232-5.632-7.68-13.312-13.824-23.040-17.92 5.632-2.56 12.288-7.168 17.408-15.36 5.632-9.216 6.656-18.944 6.656-26.112 0-18.944-6.144-37.888-18.944-50.688-16.384-16.896-36.352-18.944-51.2-18.944-15.36 0-28.16 2.56-39.936 12.8-12.288 10.752-19.456 28.16-19.968 46.592zM106.496 94.464l240.64 343.040 18.432-11.264-241.152-343.552zM374.272 305.408l-18.944-153.6h25.088l-3.072-23.552h-25.088l-4.608-38.912h-25.6l4.608 38.912h-104.96zM271.872 151.808h57.856l9.728 79.36z" />
<glyph unicode="&#xbf;" glyph-name="questiondown" horiz-adv-x="226" d="M90.624 164.608h-36.864c2.048 20.992 11.264 45.056 25.6 58.88 10.24 10.24 28.16 19.456 54.272 19.456 13.312 0 34.304-2.048 50.688-18.432 7.168-7.168 17.92-21.504 17.92-46.080 0-23.552-9.216-41.472-20.992-52.736-10.752-10.24-27.136-18.432-51.712-26.624l-23.552-7.68c-15.36-5.12-24.576-13.312-29.696-19.968-4.608-6.144-9.216-15.872-9.216-31.232 0-8.192 2.048-19.968 11.264-29.184 5.632-5.12 14.336-10.752 28.672-10.752 12.288 0 27.136 3.584 36.352 12.288 4.608 4.096 14.336 15.872 14.336 41.984 0 3.584 0 8.192-0.512 12.288h37.888v-4.096c0-26.112-5.12-53.248-23.040-72.192-11.264-12.288-32.256-25.088-68.608-25.088-20.992 0-36.864 4.608-52.224 18.432-16.384 14.848-22.528 32.256-22.528 53.248 0 27.136 11.264 49.152 24.576 62.464 13.824 13.824 30.72 19.968 43.008 24.064l22.016 7.168c11.264 3.584 27.136 8.704 36.352 18.944 6.144 6.656 9.728 16.896 9.728 27.648 0 12.8-5.632 19.968-9.728 23.040-6.144 5.12-14.848 7.68-24.576 7.68-15.872 0-24.576-6.656-29.696-13.312-5.12-7.168-9.216-19.968-9.728-30.208zM116.224 290.048c0 10.752 5.632 17.408 8.192 19.968 5.12 5.632 12.8 8.192 19.968 8.192s12.8-2.56 16.896-6.656 6.656-10.24 6.656-17.408c0-5.12-1.536-13.312-9.728-20.48-5.632-4.608-11.776-6.656-18.432-6.656-8.704 0-14.336 3.584-17.408 6.656s-6.144 8.704-6.144 16.384z" />
<glyph unicode="&#xc0;" glyph-name="Agrave" horiz-adv-x="319" d="M273.408 89.344l-28.16 96.256h-145.408l-52.736-96.256h-43.008l201.216 357.888 109.056-357.888h-40.96zM119.296 221.44h115.712l-40.96 136.704zM209.408 457.984l-70.656 59.904 38.4 23.040 56.32-66.56z" />
<glyph unicode="&#xc1;" glyph-name="Aacute" horiz-adv-x="319" d="M273.408 89.344l-28.16 96.256h-145.408l-52.736-96.256h-43.008l201.216 357.888 109.056-357.888h-40.96zM119.296 221.44h115.712l-40.96 136.704zM256.512 540.928l33.28-23.040-86.016-59.904-19.968 16.384z" />
<glyph unicode="&#xc2;" glyph-name="Acircumflex" horiz-adv-x="319" d="M273.408 89.344l-28.16 96.256h-145.408l-52.736-96.256h-43.008l201.216 357.888 109.056-357.888h-40.96zM119.296 221.44h115.712l-40.96 136.704zM210.944 497.408l-49.664-38.912-26.112 20.992 78.848 60.928 64.512-60.928-27.136-20.992z" />
<glyph unicode="&#xc3;" glyph-name="Atilde" horiz-adv-x="319" d="M273.408 89.344l-28.16 96.256h-145.408l-52.736-96.256h-43.008l201.216 357.888 109.056-357.888h-40.96zM119.296 221.44h115.712l-40.96 136.704zM269.312 520.448l19.968-17.92c-4.608-9.728-10.24-15.872-17.92-22.528-9.216-7.68-18.944-14.336-34.816-14.336-12.288 0-20.992 4.096-27.648 7.68l-10.752 6.144c-7.168 4.096-13.312 7.68-22.528 7.68-6.656 0-11.264-1.536-16.384-7.168-3.584-3.584-8.192-10.24-10.752-15.36l-20.48 18.432c5.12 8.192 12.8 18.432 20.48 24.576 10.24 8.704 20.992 12.288 32.768 12.288s22.016-4.608 29.184-8.704l12.8-7.168c3.584-2.048 10.752-5.632 17.92-5.632 4.608 0 11.264 1.536 17.408 7.168 4.096 4.096 8.192 9.728 10.752 14.848z" />
<glyph unicode="&#xc4;" glyph-name="Adieresis" horiz-adv-x="319" d="M273.408 89.344l-28.16 96.256h-145.408l-52.736-96.256h-43.008l201.216 357.888 109.056-357.888h-40.96zM119.296 221.44h115.712l-40.96 136.704zM229.376 487.68c0 5.12 1.024 12.288 7.68 19.456s14.848 9.728 21.504 9.728c5.632 0 11.776-2.048 16.384-6.144 3.072-3.072 6.656-8.192 6.656-15.872s-3.072-15.872-8.192-21.504c-4.096-4.096-10.752-8.704-20.48-8.704-9.216 0-14.848 4.096-17.408 6.656-3.584 3.584-6.144 9.728-6.144 16.384zM132.096 487.68c0 5.12 1.024 12.288 7.68 19.456s14.848 9.728 21.504 9.728c5.632 0 11.776-2.048 16.384-6.144 3.072-3.072 6.656-8.192 6.656-15.872s-3.072-15.872-8.192-21.504c-4.096-4.096-10.752-8.704-20.48-8.704-9.216 0-14.848 4.096-17.408 6.656-3.584 3.584-6.144 9.728-6.144 16.384z" />
<glyph unicode="&#xc5;" glyph-name="Aring" horiz-adv-x="319" d="M273.408 89.344l-28.16 96.256h-145.408l-52.736-96.256h-43.008l201.216 357.888 109.056-357.888h-40.96zM119.296 221.44h115.712l-40.96 136.704zM163.328 503.552c0 14.848 6.656 28.16 14.848 36.352s18.944 13.312 34.304 13.312c16.896 0 26.112-7.168 31.232-12.288 3.072-3.584 10.752-12.8 10.752-29.696 0-14.336-5.632-26.624-14.336-35.328-7.68-7.168-18.944-12.8-34.816-12.8-9.728 0-20.48 2.048-29.696 10.752-5.632 5.632-12.288 14.848-12.288 29.696zM187.904 506.112c0-4.608 1.024-9.216 5.12-13.312 2.56-2.56 7.168-5.632 14.336-5.632 5.632 0 11.776 2.048 16.384 6.144 4.096 3.584 7.168 9.728 7.168 16.896 0 6.656-2.56 11.776-6.144 14.848-3.584 3.584-9.216 5.12-14.336 5.12-6.144 0-11.776-2.048-15.872-6.144-2.048-2.048-6.656-7.68-6.656-17.92z" />
<glyph unicode="&#xc6;" glyph-name="AE" horiz-adv-x="461" d="M275.456 89.344l-28.672 95.744h-145.408l-52.224-95.744h-41.984l194.048 341.504h150.016l10.24-35.84h-137.728l30.208-101.376h135.168l10.24-35.84h-134.144l39.424-132.608h138.752l10.24-35.84h-178.176zM122.368 220.928h114.176l-39.936 133.632z" />
<glyph unicode="&#xc7;" glyph-name="Ccedilla" horiz-adv-x="333" d="M345.6 402.688l-5.632-47.104c-9.216 10.24-22.016 22.016-39.936 31.232-19.968 10.24-37.888 13.824-57.856 13.824-44.544 0-83.456-16.896-111.104-44.544-27.648-28.16-44.544-68.096-44.544-109.568s16.896-72.192 35.84-92.16c24.576-25.6 53.248-35.328 86.016-35.328 26.112 0 48.128 5.632 65.024 14.336 13.824 7.168 31.232 19.456 43.008 30.208l-5.632-47.104c-13.312-9.216-31.232-19.456-43.52-24.064-15.36-5.632-39.936-9.216-61.44-9.216-50.176 0-88.576 16.896-116.224 45.056-31.232 31.744-43.008 70.656-43.008 114.176 0 75.264 34.816 120.32 57.344 142.336 40.96 39.936 88.064 51.712 138.24 51.712 19.456 0 45.056-2.56 67.072-11.776 10.752-4.608 25.088-13.312 36.352-22.016zM193.536 62.72l33.792-15.36-61.44-65.536-24.064 13.312z" />
<glyph unicode="&#xc8;" glyph-name="Egrave" horiz-adv-x="247" d="M263.168 430.848l-4.608-35.84h-139.264l-12.288-101.376h135.168l-4.608-35.84h-135.168l-15.872-132.608h139.264l-4.608-35.84h-177.152l41.984 341.504h177.152zM183.808 457.984l-70.656 59.904 38.4 23.040 56.32-66.56z" />
<glyph unicode="&#xc9;" glyph-name="Eacute" horiz-adv-x="247" d="M263.168 430.848l-4.608-35.84h-139.264l-12.288-101.376h135.168l-4.608-35.84h-135.168l-15.872-132.608h139.264l-4.608-35.84h-177.152l41.984 341.504h177.152zM225.28 540.928l33.28-23.040-86.016-59.904-19.968 16.384z" />
<glyph unicode="&#xca;" glyph-name="Ecircumflex" horiz-adv-x="247" d="M263.168 430.848l-4.608-35.84h-139.264l-12.288-101.376h135.168l-4.608-35.84h-135.168l-15.872-132.608h139.264l-4.608-35.84h-177.152l41.984 341.504h177.152zM185.344 497.408l-49.664-38.912-26.112 20.992 78.848 60.928 64.512-60.928-27.136-20.992z" />
<glyph unicode="&#xcb;" glyph-name="Edieresis" horiz-adv-x="247" d="M263.168 430.848l-4.608-35.84h-139.264l-12.288-101.376h135.168l-4.608-35.84h-135.168l-15.872-132.608h139.264l-4.608-35.84h-177.152l41.984 341.504h177.152zM204.8 487.68c0 5.12 1.024 12.288 7.68 19.456s14.848 9.728 21.504 9.728c5.632 0 11.776-2.048 16.384-6.144 3.072-3.072 6.656-8.192 6.656-15.872s-3.072-15.872-8.192-21.504c-4.096-4.096-10.752-8.704-20.48-8.704-9.216 0-14.848 4.096-17.408 6.656-3.584 3.584-6.144 9.728-6.144 16.384zM107.52 487.68c0 5.12 1.024 12.288 7.68 19.456s14.848 9.728 21.504 9.728c5.632 0 11.776-2.048 16.384-6.144 3.072-3.072 6.656-8.192 6.656-15.872s-3.072-15.872-8.192-21.504c-4.096-4.096-10.752-8.704-20.48-8.704-9.216 0-14.848 4.096-17.408 6.656-3.584 3.584-6.144 9.728-6.144 16.384z" />
<glyph unicode="&#xcc;" glyph-name="Igrave" horiz-adv-x="126" d="M86.016 430.848h37.888l-41.984-341.504h-37.888zM108.544 457.984l-70.656 59.904 38.4 23.040 56.32-66.56z" />
<glyph unicode="&#xcd;" glyph-name="Iacute" horiz-adv-x="126" d="M86.016 430.848h37.888l-41.984-341.504h-37.888zM162.816 540.928l33.28-23.040-86.016-59.904-19.968 16.384z" />
<glyph unicode="&#xce;" glyph-name="Icircumflex" horiz-adv-x="126" d="M86.016 430.848h37.888l-41.984-341.504h-37.888zM114.176 497.408l-49.664-38.912-26.112 20.992 78.848 60.928 64.512-60.928-27.136-20.992z" />
<glyph unicode="&#xcf;" glyph-name="Idieresis" horiz-adv-x="126" d="M86.016 430.848h37.888l-41.984-341.504h-37.888zM119.808 487.68c0 7.68 2.56 16.384 9.216 22.528 4.608 4.608 10.24 6.656 16.896 6.656 4.608 0 10.24-1.536 14.848-6.144 4.096-4.608 6.144-11.264 6.144-17.92 0-8.704-3.072-15.36-8.192-20.992-5.12-5.12-10.752-7.168-17.408-7.168s-11.776 2.56-15.36 6.144-6.144 9.216-6.144 16.896zM57.344 487.68c0 7.68 2.56 16.384 9.216 22.528 4.608 4.608 10.24 6.656 16.896 6.656 4.608 0 10.24-1.536 14.848-6.144 4.096-4.608 6.144-11.264 6.144-17.92 0-8.704-3.072-15.36-8.192-20.992-5.12-5.12-10.752-7.168-17.408-7.168s-11.776 2.56-15.36 6.144-6.144 9.216-6.144 16.896z" />
<glyph unicode="&#xd0;" glyph-name="Eth" horiz-adv-x="325" d="M43.008 89.344l21.504 172.032h-44.032l4.096 32.768h44.032l16.384 136.704h61.952c38.4 0 92.672-5.632 131.584-42.496 20.992-20.48 41.472-54.272 41.472-110.592 0-39.424-9.216-94.72-49.664-136.192-41.984-43.008-96.256-52.224-161.28-52.224h-66.048zM118.272 395.008l-12.288-100.864h69.632l-4.096-32.768h-69.632l-16.384-136.192h25.088c55.808 0 98.816 9.216 130.048 40.448 34.304 34.304 39.424 82.432 39.424 109.056 0 27.136-5.632 59.392-30.72 84.992-31.744 32.768-73.728 35.328-97.792 35.328h-33.28z" />
<glyph unicode="&#xd1;" glyph-name="Ntilde" horiz-adv-x="392" d="M81.92 89.344h-37.888l43.52 355.84 231.936-280.064 32.768 265.728h37.888l-44.032-356.864-231.936 280.064zM306.176 520.448l19.968-17.92c-4.608-9.728-10.24-15.872-17.92-22.528-9.216-7.68-18.944-14.336-34.816-14.336-12.288 0-20.992 4.096-27.648 7.68l-10.752 6.144c-7.168 4.096-13.312 7.68-22.528 7.68-6.656 0-11.264-1.536-16.384-7.168-3.584-3.584-8.192-10.24-10.752-15.36l-20.48 18.432c5.12 8.192 12.8 18.432 20.48 24.576 10.24 8.704 20.992 12.288 32.768 12.288s22.016-4.608 29.184-8.704l12.8-7.168c3.584-2.048 10.752-5.632 17.92-5.632 4.608 0 11.264 1.536 17.408 7.168 4.096 4.096 8.192 9.728 10.752 14.848z" />
<glyph unicode="&#xd2;" glyph-name="Ograve" horiz-adv-x="410" d="M204.288 83.2c-37.376 0-79.872 9.728-113.664 44.544-20.992 21.504-44.032 58.368-44.032 113.152 0 70.144 30.72 115.712 58.368 141.824 37.376 35.84 83.456 53.76 140.288 53.76 37.376 0 79.36-8.192 114.688-43.008 22.016-21.504 45.056-57.344 45.056-111.616 0-52.736-18.944-107.52-57.344-144.896-29.696-28.672-78.336-53.76-143.36-53.76zM241.152 400.64c-43.52 0-81.408-15.872-108.032-40.448-24.064-22.528-47.104-59.904-47.104-112.128 0-41.984 15.36-73.728 35.328-94.208 17.92-18.432 45.568-34.816 87.040-34.816 46.080 0 85.504 16.384 110.592 40.96 30.208 29.184 46.592 74.24 46.592 114.688 0 38.4-14.848 70.144-35.84 91.136-16.896 16.896-45.056 34.816-88.576 34.816zM255.488 457.984l-70.656 59.904 38.4 23.040 56.32-66.56z" />
<glyph unicode="&#xd3;" glyph-name="Oacute" horiz-adv-x="410" d="M204.288 83.2c-37.376 0-79.872 9.728-113.664 44.544-20.992 21.504-44.032 58.368-44.032 113.152 0 70.144 30.72 115.712 58.368 141.824 37.376 35.84 83.456 53.76 140.288 53.76 37.376 0 79.36-8.192 114.688-43.008 22.016-21.504 45.056-57.344 45.056-111.616 0-52.736-18.944-107.52-57.344-144.896-29.696-28.672-78.336-53.76-143.36-53.76zM241.152 400.64c-43.52 0-81.408-15.872-108.032-40.448-24.064-22.528-47.104-59.904-47.104-112.128 0-41.984 15.36-73.728 35.328-94.208 17.92-18.432 45.568-34.816 87.040-34.816 46.080 0 85.504 16.384 110.592 40.96 30.208 29.184 46.592 74.24 46.592 114.688 0 38.4-14.848 70.144-35.84 91.136-16.896 16.896-45.056 34.816-88.576 34.816zM291.84 540.928l33.28-23.040-86.016-59.904-19.968 16.384z" />
<glyph unicode="&#xd4;" glyph-name="Ocircumflex" horiz-adv-x="410" d="M204.288 83.2c-37.376 0-79.872 9.728-113.664 44.544-20.992 21.504-44.032 58.368-44.032 113.152 0 70.144 30.72 115.712 58.368 141.824 37.376 35.84 83.456 53.76 140.288 53.76 37.376 0 79.36-8.192 114.688-43.008 22.016-21.504 45.056-57.344 45.056-111.616 0-52.736-18.944-107.52-57.344-144.896-29.696-28.672-78.336-53.76-143.36-53.76zM241.152 400.64c-43.52 0-81.408-15.872-108.032-40.448-24.064-22.528-47.104-59.904-47.104-112.128 0-41.984 15.36-73.728 35.328-94.208 17.92-18.432 45.568-34.816 87.040-34.816 46.080 0 85.504 16.384 110.592 40.96 30.208 29.184 46.592 74.24 46.592 114.688 0 38.4-14.848 70.144-35.84 91.136-16.896 16.896-45.056 34.816-88.576 34.816zM255.488 497.408l-49.664-38.912-26.112 20.992 78.848 60.928 64.512-60.928-27.136-20.992z" />
<glyph unicode="&#xd5;" glyph-name="Otilde" horiz-adv-x="410" d="M204.288 83.2c-37.376 0-79.872 9.728-113.664 44.544-20.992 21.504-44.032 58.368-44.032 113.152 0 70.144 30.72 115.712 58.368 141.824 37.376 35.84 83.456 53.76 140.288 53.76 37.376 0 79.36-8.192 114.688-43.008 22.016-21.504 45.056-57.344 45.056-111.616 0-52.736-18.944-107.52-57.344-144.896-29.696-28.672-78.336-53.76-143.36-53.76zM241.152 400.64c-43.52 0-81.408-15.872-108.032-40.448-24.064-22.528-47.104-59.904-47.104-112.128 0-41.984 15.36-73.728 35.328-94.208 17.92-18.432 45.568-34.816 87.040-34.816 46.080 0 85.504 16.384 110.592 40.96 30.208 29.184 46.592 74.24 46.592 114.688 0 38.4-14.848 70.144-35.84 91.136-16.896 16.896-45.056 34.816-88.576 34.816zM313.344 520.448l19.968-17.92c-4.608-9.728-10.24-15.872-17.92-22.528-9.216-7.68-18.944-14.336-34.816-14.336-12.288 0-20.992 4.096-27.648 7.68l-10.752 6.144c-7.168 4.096-13.312 7.68-22.528 7.68-6.656 0-11.264-1.536-16.384-7.168-3.584-3.584-8.192-10.24-10.752-15.36l-20.48 18.432c5.12 8.192 12.8 18.432 20.48 24.576 10.24 8.704 20.992 12.288 32.768 12.288s22.016-4.608 29.184-8.704l12.8-7.168c3.584-2.048 10.752-5.632 17.92-5.632 4.608 0 11.264 1.536 17.408 7.168 4.096 4.096 8.192 9.728 10.752 14.848z" />
<glyph unicode="&#xd6;" glyph-name="Odieresis" horiz-adv-x="410" d="M204.288 83.2c-37.376 0-79.872 9.728-113.664 44.544-20.992 21.504-44.032 58.368-44.032 113.152 0 70.144 30.72 115.712 58.368 141.824 37.376 35.84 83.456 53.76 140.288 53.76 37.376 0 79.36-8.192 114.688-43.008 22.016-21.504 45.056-57.344 45.056-111.616 0-52.736-18.944-107.52-57.344-144.896-29.696-28.672-78.336-53.76-143.36-53.76zM241.152 400.64c-43.52 0-81.408-15.872-108.032-40.448-24.064-22.528-47.104-59.904-47.104-112.128 0-41.984 15.36-73.728 35.328-94.208 17.92-18.432 45.568-34.816 87.040-34.816 46.080 0 85.504 16.384 110.592 40.96 30.208 29.184 46.592 74.24 46.592 114.688 0 38.4-14.848 70.144-35.84 91.136-16.896 16.896-45.056 34.816-88.576 34.816zM271.36 487.68c0 5.12 1.024 12.288 7.68 19.456s14.848 9.728 21.504 9.728c5.632 0 11.776-2.048 16.384-6.144 3.072-3.072 6.656-8.192 6.656-15.872s-3.072-15.872-8.192-21.504c-4.096-4.096-10.752-8.704-20.48-8.704-9.216 0-14.848 4.096-17.408 6.656-3.584 3.584-6.144 9.728-6.144 16.384zM174.080 487.68c0 5.12 1.024 12.288 7.68 19.456s14.848 9.728 21.504 9.728c5.632 0 11.776-2.048 16.384-6.144 3.072-3.072 6.656-8.192 6.656-15.872s-3.072-15.872-8.192-21.504c-4.096-4.096-10.752-8.704-20.48-8.704-9.216 0-14.848 4.096-17.408 6.656-3.584 3.584-6.144 9.728-6.144 16.384z" />
<glyph unicode="&#xd7;" glyph-name="multiply" d="M53.248 186.624l73.216 73.216-76.288 76.288 24.064 24.064 76.288-76.288 76.288 76.288 24.064-24.064-76.288-76.288 73.216-73.216-24.064-24.064-73.216 73.216-73.216-73.216z" />
<glyph unicode="&#xd8;" glyph-name="Oslash" horiz-adv-x="410" d="M423.936 414.464l-46.592-41.472c15.872-23.040 28.16-51.2 28.16-91.136 0-52.736-18.944-107.52-57.344-144.896-30.208-29.184-78.336-53.76-142.336-53.76-48.64 0-81.408 14.848-110.080 39.936l-45.568-40.448-22.016 25.6 46.080 40.96c-17.408 26.112-27.136 53.76-27.136 91.648 0 61.44 22.528 107.52 58.368 141.824 37.376 35.84 83.456 53.76 140.288 53.76 43.52 0 76.288-10.24 109.056-37.888l46.592 41.472zM104.96 176.384l219.136 195.072c-25.6 23.040-51.2 29.184-82.432 29.184-51.2 0-86.016-19.968-108.032-40.448-25.088-23.552-47.104-58.88-47.104-112.128 0-28.672 5.12-49.664 18.432-71.68zM346.112 345.344l-220.16-195.072c22.528-20.48 47.104-31.232 82.944-31.232 46.592 0 84.992 16.384 110.592 40.96 26.112 25.088 46.592 65.536 46.592 114.688 0 29.184-6.144 49.664-19.968 70.656z" />
<glyph unicode="&#xd9;" glyph-name="Ugrave" horiz-adv-x="331" d="M123.904 430.848l-24.576-200.704c-2.048-15.36-3.584-27.648-3.584-40.96 0-18.944 6.144-37.376 22.016-51.712 17.92-16.384 37.376-18.432 57.344-18.432 16.896 0 44.032 1.024 64.512 24.064 19.456 22.016 23.040 57.344 25.6 78.336l25.6 209.408h37.888l-27.136-219.648c-4.608-37.376-10.752-69.632-39.936-97.28s-63.488-30.72-90.624-30.72c-31.744 0-59.904 6.144-83.456 28.672-15.872 15.36-29.696 37.888-29.696 70.656 0 10.752 2.56 42.496 3.584 51.712l24.576 196.608h37.888zM214.528 457.984l-70.656 59.904 38.4 23.040 56.32-66.56z" />
<glyph unicode="&#xda;" glyph-name="Uacute" horiz-adv-x="331" d="M123.904 430.848l-24.576-200.704c-2.048-15.36-3.584-27.648-3.584-40.96 0-18.944 6.144-37.376 22.016-51.712 17.92-16.384 37.376-18.432 57.344-18.432 16.896 0 44.032 1.024 64.512 24.064 19.456 22.016 23.040 57.344 25.6 78.336l25.6 209.408h37.888l-27.136-219.648c-4.608-37.376-10.752-69.632-39.936-97.28s-63.488-30.72-90.624-30.72c-31.744 0-59.904 6.144-83.456 28.672-15.872 15.36-29.696 37.888-29.696 70.656 0 10.752 2.56 42.496 3.584 51.712l24.576 196.608h37.888zM259.072 540.928l33.28-23.040-86.016-59.904-19.968 16.384z" />
<glyph unicode="&#xdb;" glyph-name="Ucircumflex" horiz-adv-x="331" d="M123.904 430.848l-24.576-200.704c-2.048-15.36-3.584-27.648-3.584-40.96 0-18.944 6.144-37.376 22.016-51.712 17.92-16.384 37.376-18.432 57.344-18.432 16.896 0 44.032 1.024 64.512 24.064 19.456 22.016 23.040 57.344 25.6 78.336l25.6 209.408h37.888l-27.136-219.648c-4.608-37.376-10.752-69.632-39.936-97.28s-63.488-30.72-90.624-30.72c-31.744 0-59.904 6.144-83.456 28.672-15.872 15.36-29.696 37.888-29.696 70.656 0 10.752 2.56 42.496 3.584 51.712l24.576 196.608h37.888zM217.6 497.408l-49.664-38.912-26.112 20.992 78.848 60.928 64.512-60.928-27.136-20.992z" />
<glyph unicode="&#xdc;" glyph-name="Udieresis" horiz-adv-x="331" d="M123.904 430.848l-24.576-200.704c-2.048-15.36-3.584-27.648-3.584-40.96 0-18.944 6.144-37.376 22.016-51.712 17.92-16.384 37.376-18.432 57.344-18.432 16.896 0 44.032 1.024 64.512 24.064 19.456 22.016 23.040 57.344 25.6 78.336l25.6 209.408h37.888l-27.136-219.648c-4.608-37.376-10.752-69.632-39.936-97.28s-63.488-30.72-90.624-30.72c-31.744 0-59.904 6.144-83.456 28.672-15.872 15.36-29.696 37.888-29.696 70.656 0 10.752 2.56 42.496 3.584 51.712l24.576 196.608h37.888zM237.056 487.68c0 5.12 1.024 12.288 7.68 19.456s14.848 9.728 21.504 9.728c5.632 0 11.776-2.048 16.384-6.144 3.072-3.072 6.656-8.192 6.656-15.872s-3.072-15.872-8.192-21.504c-4.096-4.096-10.752-8.704-20.48-8.704-9.216 0-14.848 4.096-17.408 6.656-3.584 3.584-6.144 9.728-6.144 16.384zM139.776 487.68c0 5.12 1.024 12.288 7.68 19.456s14.848 9.728 21.504 9.728c5.632 0 11.776-2.048 16.384-6.144 3.072-3.072 6.656-8.192 6.656-15.872s-3.072-15.872-8.192-21.504c-4.096-4.096-10.752-8.704-20.48-8.704-9.216 0-14.848 4.096-17.408 6.656-3.584 3.584-6.144 9.728-6.144 16.384z" />
<glyph unicode="&#xdd;" glyph-name="Yacute" horiz-adv-x="272" d="M116.224 89.344l17.92 146.944-88.064 194.56h43.008l68.096-152.576 107.008 152.576h45.056l-137.216-194.56-17.92-146.944h-37.888zM232.96 540.928l33.28-23.040-86.016-59.904-19.968 16.384z" />
<glyph unicode="&#xde;" glyph-name="Thorn" horiz-adv-x="234" d="M86.016 430.848h37.888l-6.144-51.2h23.552c34.816 0 65.024-9.216 82.432-26.112 13.824-13.312 23.552-35.84 23.552-64.512 0-33.28-12.8-58.368-27.648-72.704-14.336-13.824-41.984-29.696-96.768-29.696h-29.184l-11.776-97.28h-37.888zM113.152 343.808l-14.848-121.344h32.256c18.432 0 43.52 2.048 61.44 18.432 10.24 9.216 18.432 24.576 18.432 47.104 0 23.040-9.216 36.352-18.944 43.52-13.824 10.752-34.816 12.288-50.176 12.288h-28.16z" />
<glyph unicode="&#xdf;" glyph-name="germandbls" horiz-adv-x="271" d="M73.216 89.344h-36.864l22.016 178.688h-33.792l4.096 33.792h33.792l8.704 70.656c2.56 19.968 8.704 48.128 29.184 69.632 13.824 14.336 35.328 26.624 67.584 26.624 28.672 0 48.128-11.264 60.416-23.040 18.944-18.432 22.528-40.96 22.528-59.392s-3.584-33.792-13.824-48.64c-9.728-14.336-22.016-22.016-34.304-26.624 15.36-6.144 27.648-15.36 40.448-28.16 17.408-20.48 20.48-42.496 20.48-61.952 0-34.816-9.216-67.584-38.912-96.256-33.792-32.768-76.288-40.448-106.496-41.472l4.096 35.84c27.136 1.536 55.296 12.288 73.216 28.672 17.408 15.872 29.184 40.448 29.184 68.608 0 23.040-8.704 41.472-20.992 53.248-14.848 14.336-38.912 22.016-59.392 22.528l4.096 32.768c16.384 0 36.352 5.632 48.64 17.408 6.144 5.632 16.384 18.944 16.384 44.032 0 10.24-1.536 25.6-12.8 36.864-7.68 7.68-19.456 12.8-34.304 12.8-15.36 0-27.136-5.12-36.352-13.824-18.432-17.92-22.016-47.616-24.064-66.048z" />
<glyph unicode="&#xe0;" glyph-name="agrave" horiz-adv-x="271" d="M221.184 271.616l3.584 30.208h36.864l-26.112-212.48h-36.864l3.584 29.696c-6.656-9.216-15.872-18.944-26.624-25.088-15.36-8.704-31.232-10.752-44.032-10.752-25.6 0-49.152 5.12-69.12 26.112-15.872 16.896-27.648 40.96-27.648 75.776 0 43.52 16.896 75.264 36.864 94.208s44.544 27.648 76.288 27.648c14.336 0 29.696-2.048 45.056-10.24 12.8-6.656 21.504-14.848 28.16-25.088zM151.040 274.176c-23.552 0-40.448-9.728-51.2-19.968-15.872-14.848-27.136-40.448-27.136-66.56 0-20.992 7.68-42.496 22.016-55.808 12.8-12.288 28.16-15.872 43.008-15.872 23.040 0 40.448 7.68 52.736 20.992 15.36 15.872 24.064 43.008 24.064 69.12 0 28.672-12.8 44.544-19.968 51.2-8.704 8.192-22.528 16.896-43.52 16.896zM158.72 343.808l-60.416 69.12 39.936 17.408 44.544-74.24z" />
<glyph unicode="&#xe1;" glyph-name="aacute" horiz-adv-x="271" d="M221.184 271.616l3.584 30.208h36.864l-26.112-212.48h-36.864l3.584 29.696c-6.656-9.216-15.872-18.944-26.624-25.088-15.36-8.704-31.232-10.752-44.032-10.752-25.6 0-49.152 5.12-69.12 26.112-15.872 16.896-27.648 40.96-27.648 75.776 0 43.52 16.896 75.264 36.864 94.208s44.544 27.648 76.288 27.648c14.336 0 29.696-2.048 45.056-10.24 12.8-6.656 21.504-14.848 28.16-25.088zM151.040 274.176c-23.552 0-40.448-9.728-51.2-19.968-15.872-14.848-27.136-40.448-27.136-66.56 0-20.992 7.68-42.496 22.016-55.808 12.8-12.288 28.16-15.872 43.008-15.872 23.040 0 40.448 7.68 52.736 20.992 15.36 15.872 24.064 43.008 24.064 69.12 0 28.672-12.8 44.544-19.968 51.2-8.704 8.192-22.528 16.896-43.52 16.896zM201.728 430.336l35.84-17.408-77.312-69.12-21.504 12.288z" />
<glyph unicode="&#xe2;" glyph-name="acircumflex" horiz-adv-x="271" d="M221.184 271.616l3.584 30.208h36.864l-26.112-212.48h-36.864l3.584 29.696c-6.656-9.216-15.872-18.944-26.624-25.088-15.36-8.704-31.232-10.752-44.032-10.752-25.6 0-49.152 5.12-69.12 26.112-15.872 16.896-27.648 40.96-27.648 75.776 0 43.52 16.896 75.264 36.864 94.208s44.544 27.648 76.288 27.648c14.336 0 29.696-2.048 45.056-10.24 12.8-6.656 21.504-14.848 28.16-25.088zM151.040 274.176c-23.552 0-40.448-9.728-51.2-19.968-15.872-14.848-27.136-40.448-27.136-66.56 0-20.992 7.68-42.496 22.016-55.808 12.8-12.288 28.16-15.872 43.008-15.872 23.040 0 40.448 7.68 52.736 20.992 15.36 15.872 24.064 43.008 24.064 69.12 0 28.672-12.8 44.544-19.968 51.2-8.704 8.192-22.528 16.896-43.52 16.896zM169.472 385.28l-52.224-41.472-23.552 18.432 78.336 61.952 62.976-61.952-23.552-18.432z" />
<glyph unicode="&#xe3;" glyph-name="atilde" horiz-adv-x="271" d="M221.184 271.616l3.584 30.208h36.864l-26.112-212.48h-36.864l3.584 29.696c-6.656-9.216-15.872-18.944-26.624-25.088-15.36-8.704-31.232-10.752-44.032-10.752-25.6 0-49.152 5.12-69.12 26.112-15.872 16.896-27.648 40.96-27.648 75.776 0 43.52 16.896 75.264 36.864 94.208s44.544 27.648 76.288 27.648c14.336 0 29.696-2.048 45.056-10.24 12.8-6.656 21.504-14.848 28.16-25.088zM151.040 274.176c-23.552 0-40.448-9.728-51.2-19.968-15.872-14.848-27.136-40.448-27.136-66.56 0-20.992 7.68-42.496 22.016-55.808 12.8-12.288 28.16-15.872 43.008-15.872 23.040 0 40.448 7.68 52.736 20.992 15.36 15.872 24.064 43.008 24.064 69.12 0 28.672-12.8 44.544-19.968 51.2-8.704 8.192-22.528 16.896-43.52 16.896zM101.888 343.808l-19.456 17.408c5.12 7.68 12.8 16.384 20.48 23.040 8.704 7.168 17.408 12.288 31.744 12.288 14.848 0 24.576-5.632 33.28-10.24l8.704-4.608c5.12-2.56 11.264-5.632 18.944-5.632 7.168 0 12.8 2.56 17.92 7.68 3.072 3.584 7.68 10.24 10.24 14.336l18.944-17.408c-4.608-8.192-11.776-18.432-18.432-24.064-9.216-8.192-19.968-11.264-31.232-11.264-11.776 0-21.504 4.096-28.16 7.168l-11.264 5.632c-7.68 3.584-14.848 7.68-22.528 7.68s-12.8-3.584-17.408-8.192c-6.144-5.632-11.264-12.8-11.776-13.824z" />
<glyph unicode="&#xe4;" glyph-name="adieresis" horiz-adv-x="271" d="M221.184 271.616l3.584 30.208h36.864l-26.112-212.48h-36.864l3.584 29.696c-6.656-9.216-15.872-18.944-26.624-25.088-15.36-8.704-31.232-10.752-44.032-10.752-25.6 0-49.152 5.12-69.12 26.112-15.872 16.896-27.648 40.96-27.648 75.776 0 43.52 16.896 75.264 36.864 94.208s44.544 27.648 76.288 27.648c14.336 0 29.696-2.048 45.056-10.24 12.8-6.656 21.504-14.848 28.16-25.088zM151.040 274.176c-23.552 0-40.448-9.728-51.2-19.968-15.872-14.848-27.136-40.448-27.136-66.56 0-20.992 7.68-42.496 22.016-55.808 12.8-12.288 28.16-15.872 43.008-15.872 23.040 0 40.448 7.68 52.736 20.992 15.36 15.872 24.064 43.008 24.064 69.12 0 28.672-12.8 44.544-19.968 51.2-8.704 8.192-22.528 16.896-43.52 16.896zM189.952 367.36c0 7.68 3.584 15.36 8.704 20.48 4.096 4.096 10.752 8.704 20.48 8.704 12.288 0 22.528-9.216 22.528-22.528 0-6.656-3.584-14.848-9.216-20.48s-12.8-8.192-19.456-8.192c-11.776 0-23.040 8.704-23.040 22.016zM100.864 367.36c0 7.68 3.584 15.36 8.704 20.48 4.096 4.096 10.752 8.704 20.48 8.704 12.288 0 22.528-9.216 22.528-22.528 0-6.656-3.584-14.848-9.216-20.48s-12.8-8.192-19.456-8.192c-11.776 0-23.040 8.704-23.040 22.016z" />
<glyph unicode="&#xe5;" glyph-name="aring" horiz-adv-x="271" d="M221.184 271.616l3.584 30.208h36.864l-26.112-212.48h-36.864l3.584 29.696c-6.656-9.216-15.872-18.944-26.624-25.088-15.36-8.704-31.232-10.752-44.032-10.752-25.6 0-49.152 5.12-69.12 26.112-15.872 16.896-27.648 40.96-27.648 75.776 0 43.52 16.896 75.264 36.864 94.208s44.544 27.648 76.288 27.648c14.336 0 29.696-2.048 45.056-10.24 12.8-6.656 21.504-14.848 28.16-25.088zM151.040 274.176c-23.552 0-40.448-9.728-51.2-19.968-15.872-14.848-27.136-40.448-27.136-66.56 0-20.992 7.68-42.496 22.016-55.808 12.8-12.288 28.16-15.872 43.008-15.872 23.040 0 40.448 7.68 52.736 20.992 15.36 15.872 24.064 43.008 24.064 69.12 0 28.672-12.8 44.544-19.968 51.2-8.704 8.192-22.528 16.896-43.52 16.896zM120.32 383.744c0 14.848 5.632 28.16 13.824 35.84 9.728 9.728 21.504 12.288 32.256 12.288 15.872 0 25.6-5.632 31.232-11.264 9.216-9.216 11.264-20.992 11.264-30.72 0-12.8-3.072-23.552-12.8-33.28-10.24-9.728-20.992-12.8-34.304-12.8-11.264 0-21.504 2.048-30.208 10.752-5.12 5.12-11.264 14.336-11.264 29.184zM143.36 385.792c0-5.632 2.048-10.24 5.12-13.312 3.072-3.584 7.68-6.144 15.36-6.144 8.192 0 13.312 3.584 15.872 6.144 4.096 4.096 6.656 10.24 6.656 17.408s-2.56 11.776-5.632 14.336c-3.584 3.584-9.728 5.12-14.848 5.12-6.144 0-11.264-1.536-15.872-6.144s-6.656-11.264-6.656-17.408z" />
<glyph unicode="&#xe6;" glyph-name="ae" horiz-adv-x="398" d="M212.48 267.52c9.728 12.8 22.016 22.016 33.792 28.16 13.312 6.656 30.208 11.264 49.664 11.264 33.792 0 55.296-12.288 67.584-25.088 15.36-15.872 29.696-45.056 24.064-93.184h-167.424v-4.096c0-26.112 9.728-43.008 18.944-52.736 12.288-12.288 26.112-15.872 41.984-15.872 14.336 0 29.184 2.048 43.008 11.776 10.752 7.68 21.504 21.504 27.648 32.768l31.232-16.896c-9.728-16.384-25.088-34.304-39.424-44.032-11.776-8.192-31.744-16.384-61.44-16.384-18.432 0-38.912 4.096-52.736 12.288-11.264 6.656-22.528 18.944-29.696 30.208-7.68-12.288-20.48-25.088-33.28-31.744-14.336-7.68-36.864-10.752-53.248-10.752-17.92 0-43.008 3.072-59.392 14.848-10.752 7.168-24.576 22.528-24.576 48.64 0 25.088 12.288 46.080 29.696 58.368 7.168 5.12 27.136 17.408 65.024 17.408 26.624 0 45.568-6.656 61.952-17.92 2.048 21.504 1.536 44.032-13.312 57.344-7.168 6.656-19.968 12.288-43.008 12.288-18.432 0-38.4-3.584-62.976-13.312l4.096 34.816c22.016 7.68 46.080 11.264 65.536 11.264 17.408 0 36.352-3.072 50.688-11.264 14.848-8.192 22.016-19.456 25.6-28.16zM122.88 189.696c-5.632 0-27.648-0.512-42.496-11.776-6.144-4.608-13.824-13.824-13.824-27.136 0-12.8 6.656-20.992 13.824-26.112 9.216-6.144 24.064-8.704 38.4-8.704 21.504 0 33.792 6.144 38.912 8.704 16.384 9.216 19.456 22.016 19.456 31.744 0 11.776-5.632 19.456-15.36 25.088-9.216 5.632-25.088 8.192-38.912 8.192zM226.816 219.392h126.464c-0.512 17.92-8.192 32.256-17.92 41.472-12.288 11.264-26.624 13.312-39.936 13.312-17.408 0-33.28-3.072-48.128-17.92-9.216-9.216-16.896-22.528-20.48-36.864z" />
<glyph unicode="&#xe7;" glyph-name="ccedilla" horiz-adv-x="226" d="M226.304 286.464l-5.12-44.032c-7.168 8.192-17.408 17.408-26.624 22.528-10.24 5.632-24.576 9.216-38.4 9.216-23.552 0-41.984-8.192-56.832-22.016-13.824-13.312-27.136-34.304-27.136-64.512 0-26.624 10.752-43.52 20.48-53.248 14.336-14.336 31.744-18.432 49.152-18.432 14.848 0 26.624 2.56 39.424 9.216 13.824 7.168 23.040 16.384 29.696 24.064l-5.12-44.032c-10.24-7.68-20.48-13.312-30.72-16.384-12.288-4.096-25.6-5.632-37.888-5.632-26.112 0-52.736 5.632-74.752 28.16-18.432 18.944-28.16 45.056-28.16 74.24 0 32.256 13.312 66.048 36.864 89.088 13.824 13.824 41.472 32.256 86.016 32.256 21.504 0 46.592-5.12 69.12-20.48zM122.88 62.72l31.744-13.824-59.392-65.536-23.552 12.288z" />
<glyph unicode="&#xe8;" glyph-name="egrave" horiz-adv-x="248" d="M202.24 160.512l31.232-16.896c-9.728-16.384-25.088-34.304-39.424-44.032-20.992-13.824-43.52-16.384-61.44-16.384-25.088 0-49.152 4.608-70.144 26.624-12.8 13.312-28.16 36.864-28.16 76.288 0 36.352 13.824 68.608 36.352 91.136 22.016 22.016 46.080 29.696 74.24 29.696 35.84 0 56.832-12.8 69.12-25.088 15.36-15.872 29.696-45.056 24.064-93.696h-165.376c-0.512-30.208 9.728-47.104 18.944-56.32 12.288-12.288 26.624-15.872 41.984-15.872 12.288 0 27.136 2.048 40.96 11.776 10.752 7.68 21.504 21.504 27.648 32.768zM78.848 218.88h123.904c-0.512 15.36-7.168 31.744-17.92 41.984-11.776 11.264-27.136 13.312-38.912 13.312-18.944 0-33.792-5.12-46.592-17.92-9.216-9.216-16.896-22.528-20.48-37.376zM158.72 343.808l-60.416 69.12 39.936 17.408 44.544-74.24z" />
<glyph unicode="&#xe9;" glyph-name="eacute" horiz-adv-x="248" d="M202.24 160.512l31.232-16.896c-9.728-16.384-25.088-34.304-39.424-44.032-20.992-13.824-43.52-16.384-61.44-16.384-25.088 0-49.152 4.608-70.144 26.624-12.8 13.312-28.16 36.864-28.16 76.288 0 36.352 13.824 68.608 36.352 91.136 22.016 22.016 46.080 29.696 74.24 29.696 35.84 0 56.832-12.8 69.12-25.088 15.36-15.872 29.696-45.056 24.064-93.696h-165.376c-0.512-30.208 9.728-47.104 18.944-56.32 12.288-12.288 26.624-15.872 41.984-15.872 12.288 0 27.136 2.048 40.96 11.776 10.752 7.68 21.504 21.504 27.648 32.768zM78.848 218.88h123.904c-0.512 15.36-7.168 31.744-17.92 41.984-11.776 11.264-27.136 13.312-38.912 13.312-18.944 0-33.792-5.12-46.592-17.92-9.216-9.216-16.896-22.528-20.48-37.376zM191.488 430.336l35.84-17.408-77.312-69.12-21.504 12.288z" />
<glyph unicode="&#xea;" glyph-name="ecircumflex" horiz-adv-x="248" d="M202.24 160.512l31.232-16.896c-9.728-16.384-25.088-34.304-39.424-44.032-20.992-13.824-43.52-16.384-61.44-16.384-25.088 0-49.152 4.608-70.144 26.624-12.8 13.312-28.16 36.864-28.16 76.288 0 36.352 13.824 68.608 36.352 91.136 22.016 22.016 46.080 29.696 74.24 29.696 35.84 0 56.832-12.8 69.12-25.088 15.36-15.872 29.696-45.056 24.064-93.696h-165.376c-0.512-30.208 9.728-47.104 18.944-56.32 12.288-12.288 26.624-15.872 41.984-15.872 12.288 0 27.136 2.048 40.96 11.776 10.752 7.68 21.504 21.504 27.648 32.768zM78.848 218.88h123.904c-0.512 15.36-7.168 31.744-17.92 41.984-11.776 11.264-27.136 13.312-38.912 13.312-18.944 0-33.792-5.12-46.592-17.92-9.216-9.216-16.896-22.528-20.48-37.376zM156.16 385.28l-52.224-41.472-23.552 18.432 78.336 61.952 62.976-61.952-23.552-18.432z" />
<glyph unicode="&#xeb;" glyph-name="edieresis" horiz-adv-x="248" d="M202.24 160.512l31.232-16.896c-9.728-16.384-25.088-34.304-39.424-44.032-20.992-13.824-43.52-16.384-61.44-16.384-25.088 0-49.152 4.608-70.144 26.624-12.8 13.312-28.16 36.864-28.16 76.288 0 36.352 13.824 68.608 36.352 91.136 22.016 22.016 46.080 29.696 74.24 29.696 35.84 0 56.832-12.8 69.12-25.088 15.36-15.872 29.696-45.056 24.064-93.696h-165.376c-0.512-30.208 9.728-47.104 18.944-56.32 12.288-12.288 26.624-15.872 41.984-15.872 12.288 0 27.136 2.048 40.96 11.776 10.752 7.68 21.504 21.504 27.648 32.768zM78.848 218.88h123.904c-0.512 15.36-7.168 31.744-17.92 41.984-11.776 11.264-27.136 13.312-38.912 13.312-18.944 0-33.792-5.12-46.592-17.92-9.216-9.216-16.896-22.528-20.48-37.376zM170.496 367.36c0 7.68 3.584 15.36 8.704 20.48 4.096 4.096 10.752 8.704 20.48 8.704 12.288 0 22.528-9.216 22.528-22.528 0-6.656-3.584-14.848-9.216-20.48s-12.8-8.192-19.456-8.192c-11.776 0-23.040 8.704-23.040 22.016zM81.408 367.36c0 7.68 3.584 15.36 8.704 20.48 4.096 4.096 10.752 8.704 20.48 8.704 12.288 0 22.528-9.216 22.528-22.528 0-6.656-3.584-14.848-9.216-20.48s-12.8-8.192-19.456-8.192c-11.776 0-23.040 8.704-23.040 22.016z" />
<glyph unicode="&#xec;" glyph-name="igrave" horiz-adv-x="107" d="M60.928 301.824h36.864l-26.112-212.48h-36.864zM87.040 341.76l-53.76 75.264 40.96 13.824 36.864-78.336z" />
<glyph unicode="&#xed;" glyph-name="iacute" horiz-adv-x="107" d="M60.928 301.824h36.864l-26.112-212.48h-36.864zM116.224 430.848l37.888-13.824-72.192-75.264-23.040 10.752z" />
<glyph unicode="&#xee;" glyph-name="icircumflex" horiz-adv-x="107" d="M60.928 301.824h36.864l-26.112-212.48h-36.864zM89.088 382.208l-42.496-34.304-19.968 17.92 67.072 54.272 53.76-54.272-24.064-17.92z" />
<glyph unicode="&#xef;" glyph-name="idieresis" horiz-adv-x="107" d="M60.928 301.824h36.864l-26.112-212.48h-36.864zM104.448 367.36c0 7.68 3.584 15.36 8.704 20.48 4.096 4.096 10.752 8.704 20.48 8.704 12.288 0 22.528-9.216 22.528-22.528 0-6.656-3.584-14.848-9.216-20.48s-12.8-8.192-19.456-8.192c-11.776 0-23.040 8.704-23.040 22.016zM15.36 367.36c0 7.68 3.584 15.36 8.704 20.48 4.096 4.096 10.752 8.704 20.48 8.704 12.288 0 22.528-9.216 22.528-22.528 0-6.656-3.584-14.848-9.216-20.48s-12.8-8.192-19.456-8.192c-11.776 0-23.040 8.704-23.040 22.016z" />
<glyph unicode="&#xf0;" glyph-name="eth" horiz-adv-x="266" d="M82.432 402.688l12.8 31.232c53.76-4.096 89.088-26.112 103.424-36.352l65.536 19.968 8.704-26.112-50.176-15.872c11.776-11.776 20.48-24.064 29.184-43.52 13.312-30.208 14.336-51.712 14.336-75.776 0-60.928-8.704-107.52-43.52-140.8-25.6-24.576-54.784-32.256-87.040-32.256-26.112 0-50.176 6.656-70.656 27.136-18.432 18.432-30.208 46.080-30.208 76.288 0 33.28 13.312 67.584 34.304 90.112 15.872 17.408 44.544 36.352 88.576 36.352 33.792 0 55.296-13.312 68.608-24.576-2.56 19.456-11.264 47.616-42.496 74.752l-97.792-30.72-7.168 27.648 74.752 23.040c-23.552 12.8-47.616 18.432-71.168 19.456zM224.768 212.736c0 14.336-3.072 33.28-18.944 49.152-9.216 9.216-24.064 18.432-48.128 18.432-28.672 0-47.104-12.288-57.344-22.016-15.36-14.848-26.624-40.448-26.624-71.68 0-27.136 10.24-43.52 18.944-52.224 8.192-8.192 22.528-18.432 47.104-18.432 25.6 0 44.544 9.216 58.368 23.040s26.624 37.888 26.624 73.728z" />
<glyph unicode="&#xf1;" glyph-name="ntilde" horiz-adv-x="240" d="M34.816 89.344l26.112 212.48h36.864l-3.072-24.576c1.024 1.536 10.24 12.8 21.504 19.968 13.312 8.192 27.648 9.728 39.424 9.728 15.36 0 35.328-3.072 50.688-18.432 14.336-14.336 16.896-31.744 16.896-47.616 0-10.752-1.536-22.528-3.072-35.328l-14.336-116.224h-36.864l12.8 105.984c1.024 8.704 3.072 26.624 3.072 36.352 0 8.704-1.024 22.016-10.752 31.744-6.144 6.144-16.384 10.752-29.696 10.752-16.384 0-29.696-6.144-37.888-14.848-14.336-14.848-18.432-39.936-20.992-58.88l-13.824-111.104h-36.864zM91.648 343.808l-19.456 17.408c5.12 7.68 12.8 16.384 20.48 23.040 8.704 7.168 17.408 12.288 31.744 12.288 14.848 0 24.576-5.632 33.28-10.24l8.704-4.608c5.12-2.56 11.264-5.632 18.944-5.632 7.168 0 12.8 2.56 17.92 7.68 3.072 3.584 7.68 10.24 10.24 14.336l18.944-17.408c-4.608-8.192-11.776-18.432-18.432-24.064-9.216-8.192-19.968-11.264-31.232-11.264-11.776 0-21.504 4.096-28.16 7.168l-11.264 5.632c-7.68 3.584-14.848 7.68-22.528 7.68s-12.8-3.584-17.408-8.192c-6.144-5.632-11.264-12.8-11.776-13.824z" />
<glyph unicode="&#xf2;" glyph-name="ograve" horiz-adv-x="271" d="M137.216 83.2c-30.208 0-55.296 7.68-75.776 29.184-14.848 15.872-27.136 39.936-27.136 74.24 0 30.72 10.24 62.464 38.4 88.576 23.552 21.504 50.688 31.744 84.992 31.744 34.816 0 59.904-11.264 77.824-29.184 21.504-21.504 26.112-47.616 26.112-69.632 0-46.080-18.944-75.776-35.84-92.16-27.136-26.624-59.904-32.768-88.576-32.768zM157.184 274.176c-14.336 0-37.376-3.584-57.856-23.552-17.92-17.408-27.136-40.96-27.136-66.56 0-24.064 10.24-39.424 18.432-48.128 7.68-8.192 23.040-19.968 49.152-19.968 26.624 0 45.568 11.264 57.856 24.576 15.872 16.896 25.6 42.496 25.6 67.072 0 21.504-8.192 37.376-17.408 47.104-10.752 11.264-27.648 19.456-48.64 19.456zM164.864 343.808l-60.416 69.12 39.936 17.408 44.544-74.24z" />
<glyph unicode="&#xf3;" glyph-name="oacute" horiz-adv-x="271" d="M137.216 83.2c-30.208 0-55.296 7.68-75.776 29.184-14.848 15.872-27.136 39.936-27.136 74.24 0 30.72 10.24 62.464 38.4 88.576 23.552 21.504 50.688 31.744 84.992 31.744 34.816 0 59.904-11.264 77.824-29.184 21.504-21.504 26.112-47.616 26.112-69.632 0-46.080-18.944-75.776-35.84-92.16-27.136-26.624-59.904-32.768-88.576-32.768zM157.184 274.176c-14.336 0-37.376-3.584-57.856-23.552-17.92-17.408-27.136-40.96-27.136-66.56 0-24.064 10.24-39.424 18.432-48.128 7.68-8.192 23.040-19.968 49.152-19.968 26.624 0 45.568 11.264 57.856 24.576 15.872 16.896 25.6 42.496 25.6 67.072 0 21.504-8.192 37.376-17.408 47.104-10.752 11.264-27.648 19.456-48.64 19.456zM207.872 430.336l35.84-17.408-77.312-69.12-21.504 12.288z" />
<glyph unicode="&#xf4;" glyph-name="ocircumflex" horiz-adv-x="271" d="M137.216 83.2c-30.208 0-55.296 7.68-75.776 29.184-14.848 15.872-27.136 39.936-27.136 74.24 0 30.72 10.24 62.464 38.4 88.576 23.552 21.504 50.688 31.744 84.992 31.744 34.816 0 59.904-11.264 77.824-29.184 21.504-21.504 26.112-47.616 26.112-69.632 0-46.080-18.944-75.776-35.84-92.16-27.136-26.624-59.904-32.768-88.576-32.768zM157.184 274.176c-14.336 0-37.376-3.584-57.856-23.552-17.92-17.408-27.136-40.96-27.136-66.56 0-24.064 10.24-39.424 18.432-48.128 7.68-8.192 23.040-19.968 49.152-19.968 26.624 0 45.568 11.264 57.856 24.576 15.872 16.896 25.6 42.496 25.6 67.072 0 21.504-8.192 37.376-17.408 47.104-10.752 11.264-27.648 19.456-48.64 19.456zM169.472 385.28l-52.224-41.472-23.552 18.432 78.336 61.952 62.976-61.952-23.552-18.432z" />
</font>
</defs>
</svg>
